<svg xmlns="http://www.w3.org/2000/svg" xmlns:xlink="http://www.w3.org/1999/xlink" width="85" height="85" viewBox="0 0 85 85">
  <defs>
    <clipPath id="clip-path">
      <rect id="Rectángulo_404665" data-name="Rectángulo 404665" width="52" height="52" transform="translate(301.711 3311)" fill="#fff" stroke="#707070" stroke-width="1"/>
    </clipPath>
  </defs>
  <g id="Grupo_1105184" data-name="Grupo 1105184" transform="translate(-285 -3294.922)">
    <g id="Grupo_156312" data-name="Grupo 156312" transform="translate(285 3294.922)">
      <path id="Elipse_5845" data-name="Elipse 5845" d="M42.5,0A42.5,42.5,0,1,1,0,42.5,42.5,42.5,0,0,1,42.5,0Z" transform="translate(0 0)" fill="#4f08c2"/>
    </g>
    <g id="Enmascarar_grupo_1098830" data-name="Enmascarar grupo 1098830" clip-path="url(#clip-path)">
      <g id="ai_3_" data-name="ai (3)" transform="translate(302.808 3311)">
        <path id="Trazado_879717" data-name="Trazado 879717" d="M40.74,21.667h2.6a.867.867,0,0,0,.867-.867V18.2a.867.867,0,1,0-1.733,0v1.733H40.74a.867.867,0,0,0,0,1.733Zm0,0" fill="#fff"/>
        <path id="Trazado_879718" data-name="Trazado 879718" d="M20.351,18.2a3.467,3.467,0,1,0-3.467-3.467A3.467,3.467,0,0,0,20.351,18.2Zm0-5.2a1.733,1.733,0,1,1-1.733,1.733A1.733,1.733,0,0,1,20.351,13Zm0,0" fill="#fff"/>
        <path id="Trazado_879719" data-name="Trazado 879719" d="M1.42,17.912a2.587,2.587,0,0,0,3.631-1.456l6.816-.105-1.189.983a.866.866,0,0,0-.2,1.1l1.619,2.8.036,3.9H7.807a.763.763,0,0,0-.15.03,2.6,2.6,0,1,0,0,1.672.763.763,0,0,0,.15.03h5.2a.867.867,0,0,0,.867-.874l-.04-4.393,2.773-1.04q.282.183.573.334l.585,3.514a.867.867,0,0,0,.856.724h.453v4.333h-2.6a.867.867,0,0,0-.867.867V42.975L8.061,50.521A.867.867,0,0,0,8.674,52H36.407a.867.867,0,0,0,.613-1.479l-5.813-5.813v-4.6l1.94-3.232c3.274,1.975,5.253,2.992,5.86,2.992h5.2A.867.867,0,0,0,45.074,39V34.159l1.479-1.479a.875.875,0,0,0,.255-.614v-2.6h1.266a1.733,1.733,0,0,0,1.584-2.437l-2.695-6.067a6.735,6.735,0,0,0,1.578-4.348A15.047,15.047,0,0,0,40.177,3.083L37.664,1.824a.866.866,0,0,0-1.092.272l-.363.5H30.341V.867A.867.867,0,0,0,29.474,0H20.807a.867.867,0,0,0-.867.867V4.333H18.618a.867.867,0,0,0-.856.724l-.585,3.513c-.193.1-.385.212-.573.334l-3.338-1.25a.866.866,0,0,0-1.055.378l-.874,1.514c-.022,0-.041-.013-.063-.013h-5.2V6.774a2.6,2.6,0,1,0-1.733,0V10.4a.867.867,0,0,0,.867.867h5.187a.858.858,0,0,0,.284.867L13.427,14.4c0,.063,0,.128-.005.193l-8.374.129A2.6,2.6,0,1,0,1.42,17.912Zm3.787,8.954A.867.867,0,1,1,6.074,26,.867.867,0,0,1,5.207,26.867Zm0-23.4a.867.867,0,1,1-.867.867A.867.867,0,0,1,5.207,3.467Zm15.6,21.667h1.278a.866.866,0,0,0,.854-.724l.586-3.514c.193-.1.384-.212.572-.334l3.339,1.25a.866.866,0,0,0,1.055-.378l.367-.634h4.083a.792.792,0,0,0,.188-.038l1.545,2.06v1.445H31.207V26h2l-2.321.928a.867.867,0,0,0-.545.805v1.733H20.807Zm9.417-14.1-.366-.634h2.215v3.467H27.923l2.1-1.733a.866.866,0,0,0,.2-1.1Zm1.85,4.566v3.467H29.859l.366-.634a.866.866,0,0,0-.2-1.1l-2.1-1.733ZM26.261,37.013l3.213,3.213v.508h-5.2V31.2h1.733v5.2a.867.867,0,0,0,.254.613ZM20.767,48.533h.04v-.045l3.253-3.717a.868.868,0,0,0,.214-.571V42.467h1.733v7.8h-6.76Zm-10,1.733,6.321-6.321a.867.867,0,0,0,.254-.613V31.2h5.2V43.874l-1.733,1.981V41.6H19.074v6.24l-2.127,2.426Zm23.549,0H27.741v-7.8h1.733v2.6a.867.867,0,0,0,.254.613Zm-4.148-11.8-2.426-2.427V31.2h2.6v3.467a.868.868,0,0,0,.407.735c.323.2.615.381.92.569ZM37.549,3.706l1.853.928a13.323,13.323,0,0,1,7.406,11.981,5.019,5.019,0,0,1-1.479,3.572.866.866,0,0,0-.179.964l2.925,6.582H45.941a.867.867,0,0,0-.867.867v2.6h-.149a5.016,5.016,0,0,1-3.572-1.479.867.867,0,0,0-1.226,1.226,6.718,6.718,0,0,0,3.8,1.907l-.334.334a.867.867,0,0,0-.254.613v4.333l-4.251.005a46.076,46.076,0,0,1-5.785-3.2l0,0h-.006c-.408-.248-.817-.5-1.221-.75V28.32l3.788-1.515A.867.867,0,0,0,36.407,26V22.533a.867.867,0,0,0-.174-.52l-2.426-3.235V8.944ZM21.674,1.733h6.933V3.467a.867.867,0,0,0,.867.867h5.5l-2.735,3.83a.858.858,0,0,0-.162.5H28.858l-.367-.634a.866.866,0,0,0-1.055-.378L24.1,8.9c-.188-.122-.38-.234-.572-.334l-.589-3.514a.866.866,0,0,0-.854-.724h-.411Zm-9.328,9.533,1-1.733,3.078,1.154a.867.867,0,0,0,.822-.117A5.2,5.2,0,0,1,18.3,9.954a.866.866,0,0,0,.513-.654l.539-3.234h2L21.89,9.3a.866.866,0,0,0,.513.654,5.251,5.251,0,0,1,1.055.615.865.865,0,0,0,.821.117l3.079-1.154,1,1.733-2.535,2.086a.867.867,0,0,0-.309.772,4.663,4.663,0,0,1,0,1.219.868.868,0,0,0,.309.772L28.356,18.2l-1,1.733L24.279,18.78a.865.865,0,0,0-.821.117,5.251,5.251,0,0,1-1.055.615.866.866,0,0,0-.513.654L21.351,23.4h-2l-.537-3.234a.866.866,0,0,0-.513-.654,5.185,5.185,0,0,1-1.055-.615.866.866,0,0,0-.823-.117l-3.079,1.154-1-1.733,2.535-2.086c.015-.015.03-.031.044-.047a.672.672,0,0,0,.048-.05.844.844,0,0,0,.156-.239l.006-.01a.857.857,0,0,0,.055-.3.287.287,0,0,0,.007-.037c0-.011-.005-.019-.006-.03s0-.04,0-.06a4.663,4.663,0,0,1,0-1.219.869.869,0,0,0-.31-.772ZM1.837,15.2a.857.857,0,0,1,.506-.433.867.867,0,0,1,.531,1.647A.864.864,0,0,1,1.837,15.2Zm0,0" fill="#fff"/>
        <path id="Trazado_879720" data-name="Trazado 879720" d="M19.074,34.667h1.733V36.4H19.074Zm0,0" fill="#fff"/>
        <path id="Trazado_879721" data-name="Trazado 879721" d="M19.074,38.133h1.733v1.733H19.074Zm0,0" fill="#fff"/>
        <path id="Trazado_879722" data-name="Trazado 879722" d="M24.274,24.267h1.733V26H24.274Zm0,0" fill="#fff"/>
        <path id="Trazado_879723" data-name="Trazado 879723" d="M27.74,24.267h1.733V26H27.74Zm0,0" fill="#fff"/>
        <path id="Trazado_879724" data-name="Trazado 879724" d="M35.54,8.667h1.733v3.467H35.54Zm0,0" fill="#fff"/>
        <path id="Trazado_879725" data-name="Trazado 879725" d="M35.54,13.867h1.733V15.6H35.54Zm0,0" fill="#fff"/>
        <path id="Trazado_879726" data-name="Trazado 879726" d="M35.54,17.333h1.733v1.733H35.54Zm0,0" fill="#fff"/>
      </g>
    </g>
  </g>
</svg>
