<svg xmlns="http://www.w3.org/2000/svg" xmlns:xlink="http://www.w3.org/1999/xlink" width="79.496" height="79.496" viewBox="0 0 79.496 79.496">
  <defs>
    <clipPath id="clip-path">
      <rect id="Rectángulo_403337" data-name="Rectángulo 403337" width="48" height="48" transform="translate(288.497 11108.496)" fill="#fff" stroke="#707070" stroke-width="1"/>
    </clipPath>
  </defs>
  <g id="Grupo_1104412" data-name="Grupo 1104412" transform="translate(-273 -11093)">
    <circle id="Elipse_4742" data-name="Elipse 4742" cx="39.748" cy="39.748" r="39.748" transform="translate(273 11093)" fill="#005dff"/>
    <g id="Enmascarar_grupo_1098853" data-name="Enmascarar grupo 1098853" clip-path="url(#clip-path)">
      <g id="Layer_2" data-name="Layer 2" transform="translate(285.068 11105.067)">
        <path id="Trazado_880137" data-name="Trazado 880137" d="M26.571,13.714H24v1.714h2.571a.857.857,0,1,0,0-1.714Z" fill="#fff"/>
        <path id="Trazado_880138" data-name="Trazado 880138" d="M3.429,37.714a5.143,5.143,0,0,0,5.143,5.143H46.286a5.143,5.143,0,0,0,5.143-5.143V32.571h-48Z" fill="#fff"/>
        <path id="Trazado_880139" data-name="Trazado 880139" d="M46.286,3.429H8.571A5.143,5.143,0,0,0,3.429,8.571V29.143h48V8.571A5.143,5.143,0,0,0,46.286,3.429ZM17.143,20.571a1.714,1.714,0,0,1,0,3.429H13.714a3.429,3.429,0,0,1-3.429-3.429V13.714a3.429,3.429,0,0,1,3.429-3.429h3.429a1.714,1.714,0,0,1,0,3.429H13.714v6.857Zm13.212.5A1.714,1.714,0,1,1,27.931,23.5L24,19.567v2.719a1.714,1.714,0,1,1-3.429,0V12a1.714,1.714,0,0,1,1.714-1.714h4.286a4.286,4.286,0,0,1,1.349,8.354Zm14.217,1.212a1.714,1.714,0,1,1-3.429,0V16.735L39.89,18.24a1.776,1.776,0,0,1-2.637,0L36,16.735v5.551a1.714,1.714,0,1,1-3.429,0V12A1.714,1.714,0,0,1,35.6,10.9l2.967,3.562L41.539,10.9A1.714,1.714,0,0,1,44.571,12Z" fill="#fff"/>
        <path id="Trazado_880140" data-name="Trazado 880140" d="M37.269,46.286H17.589A9.355,9.355,0,0,1,15.926,48.5a1.714,1.714,0,0,0-.36,1.869,1.692,1.692,0,0,0,1.577,1.063H37.714a1.692,1.692,0,0,0,1.577-1.063,1.714,1.714,0,0,0-.36-1.869,9.355,9.355,0,0,1-1.663-2.211Z" fill="#fff"/>
      </g>
    </g>
  </g>
</svg>
