<svg id="inteligencia-artificial_2_" data-name="inteligencia-artificial (2)" xmlns="http://www.w3.org/2000/svg" width="84.677" height="89.141" viewBox="0 0 84.677 89.141">
  <path id="Trazado_877722" data-name="Trazado 877722" d="M91.92,81.789a42.338,42.338,0,1,0-77.167,0H91.92Z" transform="translate(-10.998 -17.531)" fill="#005dff"/>
  <path id="Trazado_877723" data-name="Trazado 877723" d="M97.564,40.087a7.318,7.318,0,0,0-4.53-6.792A7.5,7.5,0,0,0,82.6,38.77a1.8,1.8,0,0,1-2.089,1.453,7.453,7.453,0,0,0-8.567,9.054,1.8,1.8,0,0,1-1.474,2.19,7.446,7.446,0,0,0-5.258,10.906,2.464,2.464,0,0,1,.122.26s1.813,2.4-1.108,3.154l2.841,32.073,18.517,15.977A42.362,42.362,0,0,0,97.564,115.5l3.581-34.442Z" transform="translate(-55.029 -26.358)" fill="#fe3d97"/>
  <path id="Trazado_877724" data-name="Trazado 877724" d="M57.781,258.45H52.338c-8.813-3.33-4.073-13.175-4.073-13.175-6.3-2.33-5.658-9.25-5.658-9.25-5.813-4.011-1.517-10.691-1.517-10.691l-3.168-1.724a4.936,4.936,0,0,1-.907.23,10.36,10.36,0,0,0-2.2,16.074,2.293,2.293,0,0,1,.005,3.243,9.886,9.886,0,0,0-2.752,5.406,42.343,42.343,0,0,0,5.722,9.239l1.817-.277.7,3.1a42.318,42.318,0,0,0,18.75,11.206c-.595-2.782,1.918-4.568,1.918-4.568v-1.814C55.016,264.2,57.781,258.45,57.781,258.45Z" transform="translate(-28.317 -184.304)" fill="#e51e82"/>
  <path id="Trazado_877725" data-name="Trazado 877725" d="M361.267,175.073a2.284,2.284,0,0,1-.58-2.243l-2.677-12.916L352.358,141.3l-9.584,6.262-2.832,36.766,18.355,5.389a42.351,42.351,0,0,0,5.722-9.24A9.885,9.885,0,0,0,361.267,175.073Z" transform="translate(-283.098 -116.221)" fill="#2fd0e2"/>
  <path id="Trazado_877726" data-name="Trazado 877726" d="M401.871,155.409s-1.7.486-2.073-.767a3.3,3.3,0,0,1,.466-2.493,2.473,2.473,0,0,1,.122-.26,7.446,7.446,0,0,0-4.934-10.843,2.2,2.2,0,0,1-.472-.162l-1.529,1.46s-5.947,9.1,3.944,12.644l.4,1.916s-7.22,12.765,5.645,15.749a2.316,2.316,0,0,1,.627-1.169A10.359,10.359,0,0,0,401.871,155.409Z" transform="translate(-325.893 -115.875)" fill="#64f9ea"/>
  <path id="Trazado_877727" data-name="Trazado 877727" d="M286.3,97.86c-10.944-1.452-6.625-12.084-6.625-12.084a5.715,5.715,0,0,1-6.164-5.506V57.781l8.383-7.125c-.352-.487,1.108-1.235,1.225-1.869.081-.441-1.5-.771-1.5-1.235a7.458,7.458,0,0,0-8.466-7.379,2.222,2.222,0,0,1-2.459-1.737,7.448,7.448,0,0,0-7.384-5.769A7.541,7.541,0,0,0,256,40.261V115.5a42.209,42.209,0,0,0,30.345-12.816l.555-3.611Z" transform="translate(-213.662 -26.358)" fill="#02c0fc"/>
  <path id="Trazado_877728" data-name="Trazado 877728" d="M367.551,38.5l-2.16,2.122V53.28L358.7,58.916l-1.038,3.461,1.362,1.916,9.916-8.355a2.161,2.161,0,0,0,.768-1.652V40.622Z" transform="translate(-297.759 -31.183)" fill="#fef156"/>
  <path id="Trazado_877729" data-name="Trazado 877729" d="M299.238,41l-2.405,1.69v12.4l1.8,1.936,2.52-1.911V42.69Z" transform="translate(-247.438 -33.251)" fill="#fef156"/>
  <path id="Trazado_877730" data-name="Trazado 877730" d="M191.391,41l-1.224,1.69V55.117l2.693,1.22,1.627-1.245V42.69Z" transform="translate(-159.205 -33.251)" fill="#ffc242"/>
  <path id="Trazado_877731" data-name="Trazado 877731" d="M95.638,60.984,88.95,55.349V42.628L86.566,41,84.63,42.749v13.6A2.16,2.16,0,0,0,85.4,58l9.916,8.355,1.592-2.2Z" transform="translate(-71.906 -33.251)" fill="#ffc242"/>
  <g id="Grupo_1102094" data-name="Grupo 1102094" transform="translate(12.524 51.72)">
    <path id="Trazado_877732" data-name="Trazado 877732" d="M90.9,304.706a1.766,1.766,0,0,0,.009-3.533,3.926,3.926,0,0,1-3.9-3.942,1.766,1.766,0,0,0-1.757-1.776h-.01a1.766,1.766,0,0,0-1.766,1.757,7.462,7.462,0,0,0,7.414,7.493h.01Z" transform="translate(-83.471 -295.456)" fill="#be0b73"/>
  </g>
  <g id="Grupo_1102097" data-name="Grupo 1102097" transform="translate(25.608 62.894)">
    <g id="Grupo_1102095" data-name="Grupo 1102095">
      <path id="Trazado_877733" data-name="Trazado 877733" d="M174.147,371.368a1.766,1.766,0,0,0,1.766-1.766,9.5,9.5,0,0,0-9.485-9.485h-5.479a1.766,1.766,0,1,0,0,3.533h5.479a5.96,5.96,0,0,1,5.953,5.953A1.766,1.766,0,0,0,174.147,371.368Z" transform="translate(-159.183 -360.116)" fill="#be0b73"/>
    </g>
    <g id="Grupo_1102096" data-name="Grupo 1102096" transform="translate(5.479 7.719)">
      <path id="Trazado_877734" data-name="Trazado 877734" d="M192.655,418.076a9.5,9.5,0,0,0,9.485-9.486v-2.039a1.766,1.766,0,1,0-3.533,0v2.039a5.96,5.96,0,0,1-5.953,5.953,1.766,1.766,0,1,0,0,3.533Z" transform="translate(-190.889 -404.785)" fill="#be0b73"/>
    </g>
  </g>
  <g id="Grupo_1102098" data-name="Grupo 1102098" transform="translate(19.445 72.053)">
    <path id="Trazado_877735" data-name="Trazado 877735" d="M125.29,422.665a1.766,1.766,0,0,0,1.766-1.766,4.257,4.257,0,0,1,4.252-4.252h4.634a1.766,1.766,0,1,0,0-3.533h-4.634a7.793,7.793,0,0,0-7.785,7.785A1.766,1.766,0,0,0,125.29,422.665Z" transform="translate(-123.524 -413.114)" fill="#be0b73"/>
  </g>
  <path id="Trazado_877736" data-name="Trazado 877736" d="M68.1,409.369a1.766,1.766,0,0,0-2.281,1.019l-.344.9q1.253,1.548,2.645,2.973l1-2.61A1.767,1.767,0,0,0,68.1,409.369Z" transform="translate(-56.063 -337.866)" fill="#be0b73"/>
  <g id="Grupo_1102099" data-name="Grupo 1102099" transform="translate(62.963 51.72)">
    <path id="Trazado_877737" data-name="Trazado 877737" d="M377.114,304.706a1.766,1.766,0,0,1-.009-3.533,3.926,3.926,0,0,0,3.9-3.942,1.766,1.766,0,0,1,1.757-1.776h.01a1.766,1.766,0,0,1,1.766,1.757,7.462,7.462,0,0,1-7.414,7.493Z" transform="translate(-375.348 -295.456)" fill="#27a6ff"/>
  </g>
  <g id="Grupo_1102102" data-name="Grupo 1102102" transform="translate(42.338 62.894)">
    <g id="Grupo_1102100" data-name="Grupo 1102100">
      <path id="Trazado_877738" data-name="Trazado 877738" d="M257.766,371.368A1.766,1.766,0,0,1,256,369.6a9.5,9.5,0,0,1,9.485-9.485h5.479a1.766,1.766,0,0,1,0,3.533h-5.479a5.96,5.96,0,0,0-5.953,5.953A1.766,1.766,0,0,1,257.766,371.368Z" transform="translate(-256 -360.116)" fill="#1d8df2"/>
    </g>
    <g id="Grupo_1102101" data-name="Grupo 1102101" transform="translate(0 7.719)">
      <path id="Trazado_877739" data-name="Trazado 877739" d="M265.485,418.076A9.5,9.5,0,0,1,256,408.59v-2.039a1.766,1.766,0,1,1,3.532,0v2.039a5.96,5.96,0,0,0,5.953,5.953,1.766,1.766,0,1,1,0,3.533Z" transform="translate(-256 -404.785)" fill="#1d8df2"/>
    </g>
  </g>
  <g id="Grupo_1102103" data-name="Grupo 1102103" transform="translate(51.047 72.053)">
    <path id="Trazado_877740" data-name="Trazado 877740" d="M318.811,422.665a1.766,1.766,0,0,1-1.766-1.766,4.257,4.257,0,0,0-4.252-4.252h-4.634a1.766,1.766,0,1,1,0-3.533h4.634a7.793,7.793,0,0,1,7.785,7.785A1.766,1.766,0,0,1,318.811,422.665Z" transform="translate(-306.393 -413.114)" fill="#1d8df2"/>
  </g>
  <path id="Trazado_877741" data-name="Trazado 877741" d="M421.611,209.058a2.332,2.332,0,0,1-1.09-2.982,4.234,4.234,0,0,1-2.708,1.23,1.766,1.766,0,0,0,.24,3.524,7.737,7.737,0,0,0,4.075-1.494C421.959,209.239,421.788,209.146,421.611,209.058Z" transform="translate(-346.151 -169.801)" fill="#27a6ff"/>
  <path id="Trazado_877742" data-name="Trazado 877742" d="M61.854,209.058a2.332,2.332,0,0,0,1.09-2.982,4.234,4.234,0,0,0,2.708,1.23,1.766,1.766,0,1,1-.24,3.524,7.737,7.737,0,0,1-4.075-1.494C61.506,209.239,61.677,209.146,61.854,209.058Z" transform="translate(-52.638 -169.801)" fill="#be0b73"/>
  <path id="Trazado_877743" data-name="Trazado 877743" d="M428.178,410.388a1.766,1.766,0,1,0-3.3,1.262l1,2.61q1.391-1.423,2.645-2.973Z" transform="translate(-353.26 -337.867)" fill="#1d8df2"/>
  <path id="Trazado_877744" data-name="Trazado 877744" d="M250.792,128.166l-4.3-7.082c-.258-.024-.52-.038-.784-.038H234.592l-4.055,2.752v34.609l4.055,1.017H245.7A8.448,8.448,0,0,0,254.127,151V140.231Z" transform="translate(-192.599 -99.465)" fill="#fef156"/>
  <path id="Trazado_877745" data-name="Trazado 877745" d="M314.369,121.178c-.284.274-3.207,3.216-.141,5.482l2.473,13.947s2.921,3.648,5.505,0V129.579a8.45,8.45,0,0,0-7.837-8.4Z" transform="translate(-260.678 -99.574)" fill="#fffbb3"/>
  <path id="Trazado_877746" data-name="Trazado 877746" d="M164.144,121.046H153.377a8.448,8.448,0,0,0-8.423,8.423V151a8.448,8.448,0,0,0,8.423,8.423h10.766c-3.391-2.676.2-5.505.2-5.505-2.972-3.494.8-6.14.8-6.14s-1.512-11.276-3.024-15.207a4.931,4.931,0,0,1,2.031-6.022C160.774,124.05,164.144,121.046,164.144,121.046Z" transform="translate(-121.805 -99.465)" fill="#ffc242"/>
  <path id="Trazado_877747" data-name="Trazado 877747" d="M246.148,152.9H234.592l-4.055,1.391v25.238l4.251.74h11.361a2.506,2.506,0,0,0,2.473-2.473V155.375A2.506,2.506,0,0,0,246.148,152.9Z" transform="translate(-192.599 -125.816)" fill="#ffc242"/>
  <path id="Trazado_877748" data-name="Trazado 877748" d="M190.5,152.9H179.284a2.506,2.506,0,0,0-2.473,2.473V177.8a2.506,2.506,0,0,0,2.473,2.473h11.408c-2.972-3.494.8-6.14.8-6.14s-1.512-11.276-3.024-15.207A4.931,4.931,0,0,1,190.5,152.9Z" transform="translate(-148.157 -125.816)" fill="#fd8d3e"/>
  <ellipse id="Elipse_11629" data-name="Elipse 11629" cx="4.816" cy="4.816" rx="4.816" ry="4.816" transform="matrix(0.023, -1, 1, 0.023, 9.846, 10.183)" fill="#fef156"/>
  <ellipse id="Elipse_11630" data-name="Elipse 11630" cx="4.816" cy="4.816" rx="4.816" ry="4.816" transform="translate(28.306 0.663)" fill="#fef156"/>
  <ellipse id="Elipse_11631" data-name="Elipse 11631" cx="4.816" cy="4.816" rx="4.816" ry="4.816" transform="translate(46.738 0.663)" fill="#fffbb3"/>
  <ellipse id="Elipse_11632" data-name="Elipse 11632" cx="4.816" cy="4.816" rx="4.816" ry="4.816" transform="matrix(0.989, -0.148, 0.148, 0.989, 64.317, 1.426)" fill="#fffbb3"/>
  <g id="Grupo_1102104" data-name="Grupo 1102104" transform="translate(33.554 42.986)">
    <path id="Trazado_877749" data-name="Trazado 877749" d="M214.406,248.478h-7.455a1.782,1.782,0,0,1,0-3.564h7.456a1.782,1.782,0,0,1,0,3.564Z" transform="translate(-205.169 -244.914)" fill="#ade9f7"/>
  </g>
  <g id="Grupo_1102105" data-name="Grupo 1102105" transform="translate(31.987 32.2)">
    <path id="Trazado_877750" data-name="Trazado 877750" d="M208.446,199.441a1.782,1.782,0,0,1-1.667-1.153l-3.6-9.535-3.633,9.54a1.782,1.782,0,0,1-3.33-1.268l5.024-13.192.016-.04a2.078,2.078,0,0,1,1.928-1.3h0a2.078,2.078,0,0,1,1.928,1.292c.007.016.013.032.019.049l4.979,13.192a1.783,1.783,0,0,1-1.667,2.412Z" transform="translate(-196.099 -182.497)" fill="#e8f8fc"/>
  </g>
  <g id="Grupo_1102106" data-name="Grupo 1102106" transform="translate(48.02 32.2)">
    <path id="Trazado_877751" data-name="Trazado 877751" d="M290.661,199.441a1.782,1.782,0,0,1-1.782-1.782v-13.38a1.782,1.782,0,1,1,3.564,0v13.38A1.782,1.782,0,0,1,290.661,199.441Z" transform="translate(-288.879 -182.497)" fill="#e8f8fc"/>
  </g>
</svg>
