<svg xmlns="http://www.w3.org/2000/svg" xmlns:xlink="http://www.w3.org/1999/xlink" width="85" height="85" viewBox="0 0 85 85">
  <defs>
    <clipPath id="clip-path">
      <rect id="Rectángulo_404662" data-name="Rectángulo 404662" width="52" height="52" transform="translate(301.711 2978)" fill="#fff" stroke="#707070" stroke-width="1"/>
    </clipPath>
  </defs>
  <g id="Grupo_1105181" data-name="Grupo 1105181" transform="translate(-285 -2961.365)">
    <g id="Grupo_156312" data-name="Grupo 156312" transform="translate(285 2961.365)">
      <path id="Elipse_5845" data-name="Elipse 5845" d="M42.5,0A42.5,42.5,0,1,1,0,42.5,42.5,42.5,0,0,1,42.5,0Z" transform="translate(0 0)" fill="#4f08c2"/>
    </g>
    <g id="Enmascarar_grupo_1098827" data-name="Enmascarar grupo 1098827" clip-path="url(#clip-path)">
      <g id="productividad" transform="translate(301.712 2978)">
        <path id="Trazado_879677" data-name="Trazado 879677" d="M4.875,5.687h.812V6.5a.812.812,0,0,0,1.625,0V5.687h.812a.812.812,0,1,0,0-1.625H7.312V3.25a.812.812,0,1,0-1.625,0v.812H4.875a.812.812,0,1,0,0,1.625Z" fill="#fff"/>
        <path id="Trazado_879678" data-name="Trazado 879678" d="M40.624,46.311h-.812V45.5a.812.812,0,0,0-1.625,0v.812h-.812a.812.812,0,0,0,0,1.625h.812v.812a.812.812,0,1,0,1.625,0v-.812h.812a.812.812,0,1,0,0-1.625Z" fill="#fff"/>
        <path id="Trazado_879679" data-name="Trazado 879679" d="M40.881,34.082a.812.812,0,0,0,.47-.407l1.625-3.25a.818.818,0,0,0,.07-.2l.812-4.062a.812.812,0,0,0-.8-.972h-3.25a.813.813,0,0,0-.727.449l-1,2-.848-1.272a.813.813,0,0,0-1.039-.276l-1.625.812a.813.813,0,0,0-.449.727v2.941l-6.051,6.809H26.791a4.02,4.02,0,0,0,.834-2.437v-.179l2.634-.659a.813.813,0,0,0,.616-.788V28.437a.813.813,0,0,0-.616-.788L29.25,27.4v-8.71a.813.813,0,0,0-1.559-.32l-2.385,5.566a4.034,4.034,0,0,0-.77-.283,31.428,31.428,0,0,0-14.943,0,4.09,4.09,0,0,0-.77.283L6.436,18.366a.813.813,0,0,0-1.559.32V27.4l-1.009.253a.813.813,0,0,0-.616.788v4.875a.812.812,0,0,0,.616.788l2.634.659v.179a4.02,4.02,0,0,0,.834,2.437h-4.9A2.44,2.44,0,0,0,0,39.812V51.187A.812.812,0,0,0,.812,52H28.437a.812.812,0,0,0,.812-.812v-6.5h1.625a.813.813,0,0,0,.65-.325l7.16-9.547,2.2-.732Zm-4.6-6.223L37.51,29.7a.813.813,0,0,0,1.4-.088l1.4-2.8h1.757l-.6,2.984-1.426,2.852-1.642.548L35.75,30.539V28.127l.534-.267Zm-3.606,6.779,2.347,2.347L33.291,39.3l-2.252-2.815,1.639-1.843Zm-3.428-1.962-1.625.406V28.664l1.625.406ZM27.624,26.99l-.052-.013a4.028,4.028,0,0,0-.936-2.026l.989-2.307V26.99ZM6.5,22.645l.989,2.307a4.034,4.034,0,0,0-.936,2.026L6.5,26.99V22.645ZM4.875,32.676V29.07L6.5,28.664v4.418Zm3.25,2.259V27.595a2.43,2.43,0,0,1,1.852-2.368,29.818,29.818,0,0,1,14.17,0A2.43,2.43,0,0,1,26,27.595v7.341a2.44,2.44,0,0,1-2.437,2.437h-13A2.44,2.44,0,0,1,8.125,34.936ZM4.875,46.31H1.625v-3.25h3.25ZM2.437,39H4.875v2.437H1.625V39.811A.813.813,0,0,1,2.437,39Zm-.812,8.937h3.25v2.437H1.625Zm26,2.437H6.5V39H27.624Zm2.844-7.312H29.249V38.494l.694-.781,2.341,2.926Zm5.541-7.389-2.251-2.251,1.213-1.364L37.114,34.2l-1.1,1.472Z" fill="#fff"/>
        <path id="Trazado_879680" data-name="Trazado 879680" d="M24.374,33.312v-6.5A.812.812,0,0,0,23.562,26h-13a.812.812,0,0,0-.812.812v6.5a.812.812,0,0,0,.812.812h13A.812.812,0,0,0,24.374,33.312ZM22.749,32.5H11.375V27.624H22.749Z" fill="#fff"/>
        <path id="Trazado_879681" data-name="Trazado 879681" d="M17.062,30.062A2.437,2.437,0,1,0,14.625,32.5,2.44,2.44,0,0,0,17.062,30.062Zm-2.437.812a.812.812,0,1,1,.812-.812A.813.813,0,0,1,14.625,30.874Z" fill="#fff"/>
        <path id="Trazado_879682" data-name="Trazado 879682" d="M21.937,30.062A2.437,2.437,0,1,0,19.5,32.5,2.44,2.44,0,0,0,21.937,30.062Zm-2.437.812a.812.812,0,1,1,.812-.812A.813.813,0,0,1,19.5,30.874Z" fill="#fff"/>
        <path id="Trazado_879683" data-name="Trazado 879683" d="M21.937,41.436h-9.75a.812.812,0,0,0-.812.812v4.875a.812.812,0,0,0,.812.812h9.75a.812.812,0,0,0,.812-.812V42.249A.812.812,0,0,0,21.937,41.436Zm-.812,4.875H13v-3.25h8.125Z" fill="#fff"/>
        <path id="Trazado_879684" data-name="Trazado 879684" d="M33.4,11.967l-1.81.226a.812.812,0,0,0-.712.806v3.25a.812.812,0,0,0,.712.806l1.81.226-1.12,1.44a.813.813,0,0,0,.067,1.073l2.3,2.3a.814.814,0,0,0,1.073.067l1.44-1.12.226,1.81a.812.812,0,0,0,.806.712h3.25a.812.812,0,0,0,.806-.712l.226-1.81,1.44,1.12a.813.813,0,0,0,1.073-.067l2.3-2.3a.813.813,0,0,0,.067-1.073l-1.12-1.44,1.81-.226a.812.812,0,0,0,.712-.806V13a.812.812,0,0,0-.712-.806l-1.81-.226,1.12-1.44a.813.813,0,0,0-.067-1.073l-2.3-2.3a.815.815,0,0,0-1.073-.067l-1.44,1.12L42.242,6.4a.812.812,0,0,0-.806-.712h-3.25a.812.812,0,0,0-.806.712l-.226,1.81-1.44-1.12a.814.814,0,0,0-1.073.067l-2.3,2.3a.813.813,0,0,0-.067,1.073Zm1.887-3.155L36.941,10.1a.812.812,0,0,0,.84.1c.111-.05.223-.1.338-.139a.811.811,0,0,0,.524-.661L38.9,7.313h1.815L40.98,9.4a.811.811,0,0,0,.524.661c.115.043.227.089.338.139a.809.809,0,0,0,.84-.1L44.34,8.812,45.624,10.1l-1.289,1.658a.814.814,0,0,0-.1.838c.051.111.1.225.141.341a.813.813,0,0,0,.661.524l2.085.261v1.815l-2.085.261a.811.811,0,0,0-.661.524c-.043.116-.089.23-.141.341a.814.814,0,0,0,.1.838l1.289,1.658L44.34,20.439l-1.658-1.289a.812.812,0,0,0-.84-.1c-.11.05-.223.1-.338.139a.811.811,0,0,0-.524.661l-.261,2.085H38.9l-.261-2.085a.811.811,0,0,0-.524-.661c-.115-.043-.227-.089-.338-.139a.809.809,0,0,0-.84.1l-1.658,1.289L34,19.155,35.288,17.5a.814.814,0,0,0,.1-.838c-.051-.111-.1-.225-.141-.341a.813.813,0,0,0-.661-.524L32.5,15.533V13.718l2.085-.261a.811.811,0,0,0,.661-.524c.043-.116.089-.23.141-.341a.814.814,0,0,0-.1-.838L34,10.1Z" fill="#fff"/>
        <path id="Trazado_879685" data-name="Trazado 879685" d="M39.811,18.687a4.062,4.062,0,1,0-4.062-4.062A4.067,4.067,0,0,0,39.811,18.687Zm0-6.5a2.437,2.437,0,1,1-2.437,2.437A2.44,2.44,0,0,1,39.811,12.187Z" fill="#fff"/>
        <path id="Trazado_879686" data-name="Trazado 879686" d="M21.124,8.117h2.437v5.695a.812.812,0,0,0,.812.813h3.25a.812.812,0,0,0,.812-.813V8.117h2.437a.813.813,0,0,0,.65-1.3L26.649.307a.84.84,0,0,0-1.3,0L20.474,6.815a.813.813,0,0,0,.65,1.3ZM26,2.151l3.25,4.339H27.624a.812.812,0,0,0-.812.813V13H25.187V7.3a.812.812,0,0,0-.812-.813H22.749Z" fill="#fff"/>
        <path id="Trazado_879687" data-name="Trazado 879687" d="M8.21,13.355a.813.813,0,0,0,.727.449h2.437V19.5a.812.812,0,0,0,.812.813h3.25a.812.812,0,0,0,.812-.813V13.8h2.437a.813.813,0,0,0,.65-1.3L14.462,5.994a.84.84,0,0,0-1.3,0L8.287,12.5a.814.814,0,0,0-.077.852Zm5.6-5.516,3.25,4.339H15.437a.812.812,0,0,0-.812.813v5.695H13V12.991a.812.812,0,0,0-.812-.813H10.562Z" fill="#fff"/>
        <path id="Trazado_879688" data-name="Trazado 879688" d="M51.836,36.064l-4.875-6.508a.84.84,0,0,0-1.3,0l-4.875,6.508a.813.813,0,0,0,.65,1.3h2.437V43.06a.812.812,0,0,0,.812.813h3.25a.812.812,0,0,0,.812-.813V37.365h2.437a.813.813,0,0,0,.65-1.3Zm-3.9-.326a.812.812,0,0,0-.812.813v5.695H45.5V36.552a.812.812,0,0,0-.812-.813H43.061l3.25-4.339,3.25,4.339Z" fill="#fff"/>
      </g>
    </g>
  </g>
</svg>
