<svg xmlns="http://www.w3.org/2000/svg" xmlns:xlink="http://www.w3.org/1999/xlink" width="85" height="85" viewBox="0 0 85 85">
  <defs>
    <clipPath id="clip-path">
      <rect id="Rectángulo_404663" data-name="Rectángulo 404663" width="52" height="52" transform="translate(301.711 3089)" fill="#fff" stroke="#707070" stroke-width="1"/>
    </clipPath>
  </defs>
  <g id="Grupo_1105182" data-name="Grupo 1105182" transform="translate(-285 -3072.551)">
    <g id="Grupo_156312" data-name="Grupo 156312" transform="translate(285 3072.551)">
      <path id="Elipse_5845" data-name="Elipse 5845" d="M42.5,0A42.5,42.5,0,1,1,0,42.5,42.5,42.5,0,0,1,42.5,0Z" transform="translate(0 0)" fill="#4f08c2"/>
    </g>
    <g id="Enmascarar_grupo_1098828" data-name="Enmascarar grupo 1098828" clip-path="url(#clip-path)">
      <g id="escalada" transform="translate(300.872 3088.162)">
        <path id="Trazado_879689" data-name="Trazado 879689" d="M19.29,9.717,18.206,8.633,17.02,9.819l2.27,2.27,7.3-7.3L25.407,3.6Z" fill="#fff"/>
        <path id="Trazado_879690" data-name="Trazado 879690" d="M52.839,23.484A15.1,15.1,0,0,0,36,8.484a14.7,14.7,0,0,0-3.3.773v-5.9A2.519,2.519,0,0,0,30.194.839H13.419A2.519,2.519,0,0,0,10.9,3.355V13.419a2.519,2.519,0,0,0,2.516,2.516h1.33L17.511,18.7a2.025,2.025,0,0,0,3.456-1.433v-1.33h3.713a14.765,14.765,0,0,0-1.92,5.651,15.055,15.055,0,0,0,7.1,14.769,2.528,2.528,0,0,0-1.191,1.386H15.1v5.871H.839v9.226h36.9a4.2,4.2,0,0,0,4.194-4.194v-.993a2.494,2.494,0,0,0,1.493-3.3A2.494,2.494,0,0,0,45.106,41a2.508,2.508,0,0,0,.521-4.643A15.08,15.08,0,0,0,52.839,23.484ZM19.29,14.258v3.008a.361.361,0,0,1-.593.246l-3.253-3.253H13.419a.84.84,0,0,1-.839-.839V3.355a.84.84,0,0,1,.839-.839H30.194a.84.84,0,0,1,.839.839V9.966a15.308,15.308,0,0,0-5.213,4.292ZM2.516,45.29H16.774V39.419h11.9A2.511,2.511,0,0,0,30.378,41a2.495,2.495,0,0,0,1.677,3.355,2.494,2.494,0,0,0,1.493,3.3v.993a4.15,4.15,0,0,0,.861,2.516H2.516Zm35.226,5.871a2.519,2.519,0,0,1-2.516-2.516v-.839h5.032v.839A2.519,2.519,0,0,1,37.742,51.161ZM41.1,46.129h-6.71a.839.839,0,0,1,0-1.677H41.1a.839.839,0,1,1,0,1.677Zm1.677-3.355H32.71a.839.839,0,0,1,0-1.677H42.774a.839.839,0,0,1,0,1.677Zm1.933-14.625a7.5,7.5,0,0,0-4.131-4.111,4.194,4.194,0,1,0-5.67,0,7.5,7.5,0,0,0-4.131,4.111,8.387,8.387,0,1,1,13.931,0Zm-9.482-7.181a2.516,2.516,0,1,1,2.516,2.516A2.519,2.519,0,0,1,35.226,20.968Zm2.516,4.194a5.842,5.842,0,0,1,5.691,4.466,8.339,8.339,0,0,1-11.381,0A5.842,5.842,0,0,1,37.742,25.161Zm0,8.387c.283,0,.561-.019.839-.043v5.914H36.9V33.506C37.181,33.529,37.458,33.548,37.742,33.548Zm6.315,1.775-.444.237v2.182h.839a.839.839,0,0,1,0,1.677H40.258v-6.2a10.065,10.065,0,1,0-5.032,0v6.2H31.032a.839.839,0,0,1,0-1.677h.839V35.56l-.443-.237a13.419,13.419,0,1,1,12.628,0Z" fill="#fff"/>
        <path id="Trazado_879691" data-name="Trazado 879691" d="M13.419,39.419v-10.9a.84.84,0,0,1,.839-.839H18.1L16.181,29.6l1.186,1.186,3.948-3.948-3.948-3.948-1.186,1.186L18.1,26H14.258a2.519,2.519,0,0,0-2.516,2.516v10.9a.84.84,0,0,1-.839.839H.839v1.677H10.9A2.519,2.519,0,0,0,13.419,39.419Z" fill="#fff"/>
      </g>
    </g>
  </g>
</svg>
