<svg xmlns="http://www.w3.org/2000/svg" xmlns:xlink="http://www.w3.org/1999/xlink" width="85" height="85" viewBox="0 0 85 85">
  <defs>
    <clipPath id="clip-path">
      <rect id="Rectángulo_404763" data-name="Rectángulo 404763" width="52" height="52" transform="translate(302 1973)" fill="#fff" stroke="#fff" stroke-width="1"/>
    </clipPath>
    <clipPath id="clip-path-2">
      <path id="path2500" d="M0-52H52V0H0Z" fill="#fff"/>
    </clipPath>
  </defs>
  <g id="Grupo_1105189" data-name="Grupo 1105189" transform="translate(-285 -1956)">
    <g id="Grupo_1105075" data-name="Grupo 1105075">
      <g id="Grupo_156312" data-name="Grupo 156312" transform="translate(285 1956)">
        <path id="Elipse_5845" data-name="Elipse 5845" d="M42.5,0A42.5,42.5,0,1,1,0,42.5,42.5,42.5,0,0,1,42.5,0Z" transform="translate(0 0)" fill="#2f0474"/>
      </g>
      <g id="Enmascarar_grupo_1098841" data-name="Enmascarar grupo 1098841" clip-path="url(#clip-path)">
        <g id="g2490" transform="translate(302 2025)">
          <g id="g2492" transform="translate(10.348 -28.258)">
            <path id="path2494" d="M0,0V-11.6" fill="none" stroke="#fff" stroke-linecap="round" stroke-linejoin="round" stroke-miterlimit="10" stroke-width="1.523"/>
          </g>
          <g id="g2496">
            <g id="g2498" clip-path="url(#clip-path-2)">
              <g id="g2504" transform="translate(41.861 -22.965)">
                <path id="path2506" d="M0,0V5.908A.408.408,0,0,1-.12,6.2L-1.184,7.26" fill="none" stroke="#fff" stroke-linecap="round" stroke-linejoin="round" stroke-miterlimit="10" stroke-width="1.523"/>
              </g>
              <g id="g2508" transform="translate(39.312 -16.271)">
                <path id="path2510" d="M0,0A1.931,1.931,0,0,0-1.931,1.931,1.931,1.931,0,0,0,0,3.862,1.931,1.931,0,0,0,1.931,1.931,1.931,1.931,0,0,0,0,0Z" fill="none" stroke="#fff" stroke-linecap="round" stroke-linejoin="round" stroke-miterlimit="10" stroke-width="1.523"/>
              </g>
              <g id="g2512" transform="translate(20.429 -15.396)">
                <path id="path2514" d="M0,0A5.083,5.083,0,0,0-2.386,1.668c-1.795,2.6.89,10.455,3.5,12.071,1.931,1.194,6.978,1.194,8.909,0,1.2-.742,2.414-2.8,3.2-5.06" fill="none" stroke="#fff" stroke-linecap="round" stroke-linejoin="round" stroke-miterlimit="10" stroke-width="1.523"/>
              </g>
              <g id="g2516" transform="translate(31.571 -15.396)">
                <path id="path2518" d="M0,0A5.083,5.083,0,0,1,2.386,1.668a5.982,5.982,0,0,1,.448,4.076" fill="none" stroke="#fff" stroke-linecap="round" stroke-linejoin="round" stroke-miterlimit="10" stroke-width="1.523"/>
              </g>
              <g id="g2520" transform="translate(31.57 -15.396)">
                <path id="path2522" d="M0,0C.222.086.436.18.638.279L-1.113,5.96A4.655,4.655,0,0,1-2.8,8.337a4.65,4.65,0,0,1-2.77.912,4.664,4.664,0,0,1-4.457-3.29L-11.777.279c.2-.1.415-.193.638-.279" fill="none" stroke="#fff" stroke-linecap="round" stroke-linejoin="round" stroke-miterlimit="10" stroke-width="1.523"/>
              </g>
              <g id="g2524" transform="translate(40.057 -28.258)">
                <path id="path2526" d="M0,0H1.915a1.6,1.6,0,0,1,1.6,1.6v2.1a1.6,1.6,0,0,1-1.6,1.6H-.2" fill="none" stroke="#fff" stroke-linecap="round" stroke-linejoin="round" stroke-miterlimit="10" stroke-width="1.523"/>
              </g>
              <g id="g2528" transform="translate(12.147 -22.965)">
                <path id="path2530" d="M0,0H-2.12a1.6,1.6,0,0,1-1.6-1.6v-2.1a1.6,1.6,0,0,1,1.6-1.6H-.2" fill="none" stroke="#fff" stroke-linecap="round" stroke-linejoin="round" stroke-miterlimit="10" stroke-width="1.523"/>
              </g>
              <g id="g2532" transform="translate(15.34 -26.602)">
                <path id="path2534" d="M0,0V.888A5.478,5.478,0,0,0,5.478,6.366H15.841A5.478,5.478,0,0,0,21.319.888V0a5.478,5.478,0,0,0-5.478-5.478H5.478A5.478,5.478,0,0,0,0,0Z" fill="none" stroke="#fff" stroke-linecap="round" stroke-linejoin="round" stroke-miterlimit="10" stroke-width="1.523"/>
              </g>
              <g id="g2536" transform="translate(31.041 -28.258)">
                <path id="path2538" d="M0,0A2.1,2.1,0,0,0-2.1,2.1,2.1,2.1,0,0,0,0,4.2,2.1,2.1,0,0,0,0,0Z" fill="none" stroke="#fff" stroke-linecap="round" stroke-linejoin="round" stroke-miterlimit="10" stroke-width="1.523"/>
              </g>
              <g id="g2540" transform="translate(20.959 -28.258)">
                <path id="path2542" d="M0,0A2.1,2.1,0,0,0-2.1,2.1,2.1,2.1,0,0,0,0,4.2,2.1,2.1,0,0,0,0,0Z" fill="none" stroke="#fff" stroke-linecap="round" stroke-linejoin="round" stroke-miterlimit="10" stroke-width="1.523"/>
              </g>
              <g id="g2544" transform="translate(15.466 -37.034)">
                <path id="path2546" d="M0,0A6.338,6.338,0,0,0-1.2.984c-3.009,3.214-3.31,15.325,0,18.182,4.565,3.94,18.912,3.94,23.477,0,3.31-2.857,3.009-14.968,0-18.182C19.013-2.5,8.95-3.245,2.772-1.257" fill="none" stroke="#fff" stroke-linecap="round" stroke-linejoin="round" stroke-miterlimit="10" stroke-width="1.523"/>
              </g>
              <g id="g2548" transform="translate(26 -12.573)">
                <path id="path2550" d="M0,0A1.905,1.905,0,0,0-1.905,1.905,1.905,1.905,0,0,0,0,3.811,1.905,1.905,0,0,0,1.905,1.905,1.905,1.905,0,0,0,0,0Z" fill="none" stroke="#fff" stroke-linecap="round" stroke-linejoin="round" stroke-miterlimit="10" stroke-width="1.523"/>
              </g>
              <g id="g2552" transform="translate(41.613 -51.238)">
                <path id="path2554" d="M0,0H-19.457a1.957,1.957,0,0,0-1.958,1.958V7.615a1.957,1.957,0,0,0,1.957,1.957h14a.206.206,0,0,1,.15.064l3.571,3.773a.412.412,0,0,0,.711-.283V9.778a.206.206,0,0,1,.206-.206H0A1.957,1.957,0,0,0,1.957,7.615V1.957A1.957,1.957,0,0,0,0,0Z" fill="none" stroke="#fff" stroke-linecap="round" stroke-linejoin="round" stroke-miterlimit="10" stroke-width="1.523"/>
              </g>
              <g id="g2556" transform="translate(25.328 -46.62)">
                <path id="path2558" d="M0,0H.474" fill="none" stroke="#fff" stroke-linecap="round" stroke-linejoin="round" stroke-miterlimit="10" stroke-width="1.523"/>
              </g>
              <g id="g2560" transform="translate(29.541 -46.62)">
                <path id="path2562" d="M0,0H.474" fill="none" stroke="#fff" stroke-linecap="round" stroke-linejoin="round" stroke-miterlimit="10" stroke-width="1.523"/>
              </g>
              <g id="g2564" transform="translate(33.754 -46.62)">
                <path id="path2566" d="M0,0H.474" fill="none" stroke="#fff" stroke-linecap="round" stroke-linejoin="round" stroke-miterlimit="10" stroke-width="1.523"/>
              </g>
              <g id="g2568" transform="translate(37.967 -46.62)">
                <path id="path2570" d="M0,0H.474" fill="none" stroke="#fff" stroke-linecap="round" stroke-linejoin="round" stroke-miterlimit="10" stroke-width="1.523"/>
              </g>
              <g id="g2572" transform="translate(10.348 -43.697)">
                <path id="path2574" d="M0,0A1.919,1.919,0,0,0,0,3.837,1.919,1.919,0,0,0,1.919,1.919,1.919,1.919,0,0,0,0,0Z" fill="none" stroke="#fff" stroke-linecap="round" stroke-linejoin="round" stroke-miterlimit="10" stroke-width="1.523"/>
              </g>
            </g>
          </g>
        </g>
      </g>
    </g>
  </g>
</svg>
