<svg xmlns="http://www.w3.org/2000/svg" xmlns:xlink="http://www.w3.org/1999/xlink" width="85" height="85" viewBox="0 0 85 85">
  <defs>
    <clipPath id="clip-path">
      <rect id="Rectángulo_404664" data-name="Rectángulo 404664" width="52" height="52" transform="translate(301.711 3200)" fill="#fff" stroke="#707070" stroke-width="1"/>
    </clipPath>
  </defs>
  <g id="Grupo_1105183" data-name="Grupo 1105183" transform="translate(-285 -3183.736)">
    <g id="Grupo_156312" data-name="Grupo 156312" transform="translate(285 3183.736)">
      <path id="Elipse_5845" data-name="Elipse 5845" d="M42.5,0A42.5,42.5,0,1,1,0,42.5,42.5,42.5,0,0,1,42.5,0Z" transform="translate(0 0)" fill="#4f08c2"/>
    </g>
    <g id="Enmascarar_grupo_1098829" data-name="Enmascarar grupo 1098829" clip-path="url(#clip-path)">
      <g id="tecnologia" transform="translate(300.872 3199.161)">
        <path id="Trazado_879692" data-name="Trazado 879692" d="M30.194,15.935a2.516,2.516,0,1,0-2.516-2.516A2.519,2.519,0,0,0,30.194,15.935Zm0-3.355a.839.839,0,1,1-.839.839A.839.839,0,0,1,30.194,12.581Z" fill="#fff"/>
        <circle id="Elipse_11739" data-name="Elipse 11739" cx="0.839" cy="0.839" r="0.839" transform="translate(20.968 12.581)" fill="#fff"/>
        <path id="Trazado_879693" data-name="Trazado 879693" d="M35.226,47.806a2.516,2.516,0,1,0,2.516,2.516A2.519,2.519,0,0,0,35.226,47.806Zm0,3.355a.839.839,0,1,1,.839-.839A.839.839,0,0,1,35.226,51.161Z" fill="#fff"/>
        <path id="Trazado_879694" data-name="Trazado 879694" d="M17.613,45.29a2.516,2.516,0,1,0,2.516-2.516A2.519,2.519,0,0,0,17.613,45.29Zm2.516-.839a.839.839,0,1,1-.839.839A.839.839,0,0,1,20.129,44.452Z" fill="#fff"/>
        <path id="Trazado_879695" data-name="Trazado 879695" d="M26.839,49.484c-13.689,0-22.614-1.427-24.176-2.509.629-.4,2.717-1.1,7.494-1.672,1.615.185,3.5.353,5.725.5l.108-1.674c-9.248-.6-12.6-1.7-13.362-2.218.76-.673,4.141-1.947,10.03-2.489L12.5,37.745c-4.333.4-11.665,1.729-11.665,4.19,0,.512.006,1.574,4.087,2.522C.844,45.393.839,46.41.839,46.968c0,1.05.962,2.253,8.1,3.2a142.7,142.7,0,0,0,17.9.991c1.435,0,2.843-.016,4.212-.047l-.038-1.677C29.655,49.468,28.26,49.484,26.839,49.484Z" fill="#fff"/>
        <path id="Trazado_879696" data-name="Trazado 879696" d="M26.839,46.129q1.279,0,2.527-.017l-.021-1.677c-1.648.021-3.363.021-5.011,0l-.021,1.677Q25.558,46.129,26.839,46.129Z" fill="#fff"/>
        <path id="Trazado_879697" data-name="Trazado 879697" d="M39.355,44.005c-2.586.2-5.392.334-8.341.4l.038,1.677c2.979-.066,5.816-.2,8.433-.4Z" fill="#fff"/>
        <path id="Trazado_879698" data-name="Trazado 879698" d="M52.839,41.935c0-2.132-5.035-3.1-6.578-3.344L46,40.248c3.018.481,4.589,1.249,5.055,1.659-.685.479-3.389,1.349-10.033,1.958l.154,1.671c.829-.076,1.593-.156,2.308-.238,4.774.569,6.875,1.266,7.521,1.67-.787.487-3.793,1.465-11.648,2.071l.129,1.672c13.355-1.031,13.355-3,13.355-3.743,0-.559-.005-1.579-4.111-2.515C52.833,43.511,52.839,42.47,52.839,41.935Z" fill="#fff"/>
        <path id="Trazado_879699" data-name="Trazado 879699" d="M14.258,41.1h1.677v1.677H14.258Z" fill="#fff"/>
        <path id="Trazado_879700" data-name="Trazado 879700" d="M19.29,37.742h1.677V41.1H19.29Z" fill="#fff"/>
        <path id="Trazado_879701" data-name="Trazado 879701" d="M19.29,34.387h1.677v1.677H19.29Z" fill="#fff"/>
        <path id="Trazado_879702" data-name="Trazado 879702" d="M37.742,37.742h1.677V41.1H37.742Z" fill="#fff"/>
        <path id="Trazado_879703" data-name="Trazado 879703" d="M37.742,34.387h1.677v1.677H37.742Z" fill="#fff"/>
        <path id="Trazado_879704" data-name="Trazado 879704" d="M24.323,41.1H26v1.677H24.323Z" fill="#fff"/>
        <path id="Trazado_879705" data-name="Trazado 879705" d="M24.323,32.71H26v6.71H24.323Z" fill="#fff"/>
        <path id="Trazado_879706" data-name="Trazado 879706" d="M32.71,41.1h1.677v1.677H32.71Z" fill="#fff"/>
        <path id="Trazado_879707" data-name="Trazado 879707" d="M32.71,32.71h1.677v6.71H32.71Z" fill="#fff"/>
        <path id="Trazado_879708" data-name="Trazado 879708" d="M27.677,34.387h1.677v8.387H27.677Z" fill="#fff"/>
        <path id="Trazado_879709" data-name="Trazado 879709" d="M27.677,31.032h1.677V32.71H27.677Z" fill="#fff"/>
        <path id="Trazado_879710" data-name="Trazado 879710" d="M49.484,10.065a2.516,2.516,0,1,0-2.516,2.516A2.519,2.519,0,0,0,49.484,10.065Zm-3.355,0a.839.839,0,1,1,.839.839A.839.839,0,0,1,46.129,10.065Z" fill="#fff"/>
        <path id="Trazado_879711" data-name="Trazado 879711" d="M51.161,27.677H49.484V22.645H47.806v5.032H46.129v-6.71H44.452v6.71H42.774V24.323H41.1v5.032H52.839V20.968H51.161Z" fill="#fff"/>
        <path id="Trazado_879712" data-name="Trazado 879712" d="M6.71,26a5.867,5.867,0,0,0,.839-11.675V12.41l8.739-2.017c-.02.185-.049.367-.06.555L15.9,16.439l1.708.854v5.353A3.358,3.358,0,0,0,20.968,26h3.355v1.781A11.843,11.843,0,0,0,14.258,39.419h1.677a10.156,10.156,0,0,1,9.226-10.065l8.317,0a10.2,10.2,0,0,1,9.3,10.1V41.1h1.677V39.455A11.889,11.889,0,0,0,34.387,27.787V23.794l2.031-2.369a12.45,12.45,0,0,0,1.461-2.135h8.1l.674-3.371c.106.006.21.016.316.016a5.9,5.9,0,1,0-1.96-.344l-.4,2.021H38.652A12.468,12.468,0,0,0,26.949.839a10.748,10.748,0,0,0-10.3,7.75L5.871,11.074v3.251A5.867,5.867,0,0,0,6.71,26ZM42.774,10.065a4.194,4.194,0,1,1,4.194,4.194A4.2,4.2,0,0,1,42.774,10.065Zm-7.631,10.27L33.35,22.427A4.548,4.548,0,0,1,31.1,19.213a5.847,5.847,0,0,0,4.855-6.9l1.621-.81a10.686,10.686,0,0,1,.164,1.806A10.806,10.806,0,0,1,35.144,20.335ZM28.111,7.383l1.677-4.475a10.744,10.744,0,0,1,3.785,1.9l-2.467,2.82a5.622,5.622,0,0,0-2.577.165,5.835,5.835,0,0,0-.419-.409Zm2.083,1.843A4.194,4.194,0,1,1,26,13.419,4.2,4.2,0,0,1,30.194,9.226Zm6.965.612-1.759.879a5.9,5.9,0,0,0-2.555-2.529L34.812,5.94A10.788,10.788,0,0,1,37.158,9.838ZM28.119,2.582,26.675,6.434a5.869,5.869,0,0,0-2.353-.555V2.906a9.039,9.039,0,0,1,2.626-.39A10.8,10.8,0,0,1,28.119,2.582ZM22.645,3.611V5.871h-2.72A9.113,9.113,0,0,1,22.645,3.611ZM17.9,11.046a9,9,0,0,1,.937-3.5H24.19a4.21,4.21,0,0,1,2.722,1,5.865,5.865,0,0,0,2.5,10.678,6.214,6.214,0,0,0,3.3,4.761v3.685H26V25.987a3.849,3.849,0,0,0,3.267-2.127l-1.5-.751A2.186,2.186,0,0,1,25.8,24.323H20.968a1.679,1.679,0,0,1-1.677-1.677h1.677a3.358,3.358,0,0,0,3.355-3.355H22.645a1.679,1.679,0,0,1-1.677,1.677H19.29V16.256l-1.646-.824ZM4.4,23.624,6.71,21.315l2.309,2.309a4.165,4.165,0,0,1-4.618,0Zm6.5-3.495a4.167,4.167,0,0,1-.7,2.309L7.548,19.782V16.02A4.2,4.2,0,0,1,10.9,20.129ZM5.871,16.02v3.762L3.215,22.438A4.186,4.186,0,0,1,5.871,16.02Z" fill="#fff"/>
        <path id="Trazado_879713" data-name="Trazado 879713" d="M.839,27.677H14.258v1.677H.839Z" fill="#fff"/>
        <path id="Trazado_879714" data-name="Trazado 879714" d="M.839,31.032H10.9V32.71H.839Z" fill="#fff"/>
        <path id="Trazado_879715" data-name="Trazado 879715" d="M12.581,31.032h1.677V32.71H12.581Z" fill="#fff"/>
        <path id="Trazado_879716" data-name="Trazado 879716" d="M.839,34.387H9.226v1.677H.839Z" fill="#fff"/>
      </g>
    </g>
  </g>
</svg>
