<svg xmlns="http://www.w3.org/2000/svg" xmlns:xlink="http://www.w3.org/1999/xlink" width="85" height="85" viewBox="0 0 85 85">
  <defs>
    <clipPath id="clip-path">
      <rect id="Rectángulo_404765" data-name="Rectángulo 404765" width="52" height="52" transform="translate(302 2201)" fill="#fff" stroke="#fff" stroke-width="1"/>
    </clipPath>
  </defs>
  <g id="Grupo_1105191" data-name="Grupo 1105191" transform="translate(-285.289 -2184.551)">
    <g id="Grupo_1105073" data-name="Grupo 1105073">
      <g id="Grupo_156312" data-name="Grupo 156312" transform="translate(285.289 2184.551)">
        <path id="Elipse_5845" data-name="Elipse 5845" d="M42.5,0A42.5,42.5,0,1,1,0,42.5,42.5,42.5,0,0,1,42.5,0Z" transform="translate(0 0)" fill="#2f0474"/>
      </g>
      <g id="Enmascarar_grupo_1098843" data-name="Enmascarar grupo 1098843" clip-path="url(#clip-path)">
        <g id="chatbot_4_" data-name="chatbot (4)" transform="translate(302 2201)">
          <path id="Trazado_879963" data-name="Trazado 879963" d="M35.084,32.309H37.1a1.524,1.524,0,0,1,1.523,1.523V40.25A1.523,1.523,0,0,1,37.1,41.774h-2.47" fill="none" stroke="#fff" stroke-linecap="round" stroke-linejoin="round" stroke-miterlimit="10" stroke-width="1.523"/>
          <path id="Trazado_879964" data-name="Trazado 879964" d="M4.755,41.774H2.285A1.523,1.523,0,0,1,.762,40.25V33.833a1.524,1.524,0,0,1,1.523-1.523H4.3" fill="none" stroke="#fff" stroke-linecap="round" stroke-linejoin="round" stroke-miterlimit="10" stroke-width="1.523"/>
          <path id="Trazado_879965" data-name="Trazado 879965" d="M21.35,44.926h7.817a6.3,6.3,0,0,0,6.3-6.3V35.393A12.576,12.576,0,0,0,22.888,22.816h-6.4A12.576,12.576,0,0,0,3.916,35.393v3.237a6.3,6.3,0,0,0,6.3,6.3H18.03" fill="none" stroke="#fff" stroke-linecap="round" stroke-linejoin="round" stroke-miterlimit="10" stroke-width="1.523"/>
          <path id="Trazado_879966" data-name="Trazado 879966" d="M21.279,51.238H18.1a1.566,1.566,0,0,1-1.566-1.566V49.65A1.566,1.566,0,0,1,18.1,48.084h3.177a1.566,1.566,0,0,1,1.566,1.566v.022A1.566,1.566,0,0,1,21.279,51.238Z" fill="none" stroke="#fff" stroke-linecap="round" stroke-linejoin="round" stroke-miterlimit="10" stroke-width="1.523"/>
          <path id="Trazado_879967" data-name="Trazado 879967" d="M38.619,40.5v5.986a3.148,3.148,0,0,1-3.148,3.148H22.845" fill="none" stroke="#fff" stroke-linecap="round" stroke-linejoin="round" stroke-miterlimit="10" stroke-width="1.523"/>
          <path id="Trazado_879968" data-name="Trazado 879968" d="M22.849,10.335v3.1A3.149,3.149,0,0,0,26,16.585H38.619v6.253l6.309-6.253H48.09a3.149,3.149,0,0,0,3.148-3.148V3.91A3.149,3.149,0,0,0,48.09.762H26A3.149,3.149,0,0,0,22.849,3.91v3.1" fill="none" stroke="#fff" stroke-linecap="round" stroke-linejoin="round" stroke-miterlimit="10" stroke-width="1.523"/>
          <line id="Línea_4570" data-name="Línea 4570" x2="12.619" transform="translate(27.579 5.52)" fill="none" stroke="#fff" stroke-linecap="round" stroke-linejoin="round" stroke-miterlimit="10" stroke-width="1.523"/>
          <line id="Línea_4571" data-name="Línea 4571" x2="9.464" transform="translate(27.579 11.778)" fill="none" stroke="#fff" stroke-linecap="round" stroke-linejoin="round" stroke-miterlimit="10" stroke-width="1.523"/>
          <line id="Línea_4572" data-name="Línea 4572" x2="18.929" transform="translate(27.579 8.675)" fill="none" stroke="#fff" stroke-linecap="round" stroke-linejoin="round" stroke-miterlimit="10" stroke-width="1.523"/>
          <path id="Trazado_879969" data-name="Trazado 879969" d="M16.619,29.139H26A4.732,4.732,0,0,1,26,38.6H13.381A4.732,4.732,0,0,1,13.3,29.14" fill="none" stroke="#fff" stroke-linecap="round" stroke-linejoin="round" stroke-miterlimit="10" stroke-width="1.523"/>
          <circle id="Elipse_11745" data-name="Elipse 11745" cx="1.577" cy="1.577" r="1.577" transform="translate(13.381 32.291)" fill="none" stroke="#fff" stroke-linecap="round" stroke-linejoin="round" stroke-miterlimit="10" stroke-width="1.523"/>
          <circle id="Elipse_11746" data-name="Elipse 11746" cx="1.577" cy="1.577" r="1.577" transform="translate(22.845 32.291)" fill="none" stroke="#fff" stroke-linecap="round" stroke-linejoin="round" stroke-miterlimit="10" stroke-width="1.523"/>
          <line id="Línea_4573" data-name="Línea 4573" x2="6.31" transform="translate(16.536 41.774)" fill="none" stroke="#fff" stroke-linecap="round" stroke-linejoin="round" stroke-miterlimit="10" stroke-width="1.523"/>
          <line id="Línea_4574" data-name="Línea 4574" y2="3.105" transform="translate(19.69 19.712)" fill="none" stroke="#fff" stroke-linecap="round" stroke-linejoin="round" stroke-miterlimit="10" stroke-width="1.523"/>
          <circle id="Elipse_11747" data-name="Elipse 11747" cx="1.577" cy="1.577" r="1.577" transform="translate(18.113 16.536)" fill="none" stroke="#fff" stroke-linecap="round" stroke-linejoin="round" stroke-miterlimit="10" stroke-width="1.523"/>
        </g>
      </g>
    </g>
  </g>
</svg>
