<svg xmlns="http://www.w3.org/2000/svg" xmlns:xlink="http://www.w3.org/1999/xlink" width="79.496" height="79.496" viewBox="0 0 79.496 79.496">
  <defs>
    <clipPath id="clip-path">
      <rect id="Rectángulo_403337" data-name="Rectángulo 403337" width="48" height="48" transform="translate(288.497 11108.496)" fill="#fff" stroke="#707070" stroke-width="1"/>
    </clipPath>
  </defs>
  <g id="Grupo_1104411" data-name="Grupo 1104411" transform="translate(-273 -11093)">
    <circle id="Elipse_4742" data-name="Elipse 4742" cx="39.748" cy="39.748" r="39.748" transform="translate(273 11093)" fill="#4f08c2"/>
    <g id="Enmascarar_grupo_1098854" data-name="Enmascarar grupo 1098854" clip-path="url(#clip-path)">
      <g id="_x31_9" transform="translate(285.068 11105.067)">
        <path id="Trazado_880141" data-name="Trazado 880141" d="M8.859,21.335l-2.268,3.4L6.355,24.5a1.714,1.714,0,0,0-2.424,2.424l1.714,1.714a1.715,1.715,0,0,0,1.212.5c.055,0,.112,0,.169-.008a1.714,1.714,0,0,0,1.257-.755l3.429-5.143a1.714,1.714,0,0,0-2.853-1.9Z" fill="#fff"/>
        <path id="Trazado_880142" data-name="Trazado 880142" d="M49.567,24.857,50.926,23.5A1.714,1.714,0,1,0,48.5,21.073l-1.359,1.359-1.359-1.359A1.714,1.714,0,0,0,43.359,23.5l1.359,1.359-1.359,1.359a1.714,1.714,0,1,0,2.424,2.424l1.359-1.359L48.5,28.64a1.714,1.714,0,0,0,2.424-2.424Z" fill="#fff"/>
        <circle id="Elipse_11796" data-name="Elipse 11796" cx="5.143" cy="5.143" r="5.143" transform="translate(8.571 32.571)" fill="#fff"/>
        <path id="Trazado_880143" data-name="Trazado 880143" d="M17.124,42.857H10.3a6.873,6.873,0,0,0-6.875,6.857,1.713,1.713,0,0,0,1.714,1.714H22.286A1.713,1.713,0,0,0,24,49.714,6.873,6.873,0,0,0,17.124,42.857Z" fill="#fff"/>
        <circle id="Elipse_11797" data-name="Elipse 11797" cx="5.143" cy="5.143" r="5.143" transform="translate(36 32.571)" fill="#fff"/>
        <path id="Trazado_880144" data-name="Trazado 880144" d="M44.553,42.857h-6.82a6.873,6.873,0,0,0-6.875,6.857,1.713,1.713,0,0,0,1.714,1.714H49.714a1.713,1.713,0,0,0,1.714-1.714A6.873,6.873,0,0,0,44.553,42.857Z" fill="#fff"/>
        <path id="Trazado_880145" data-name="Trazado 880145" d="M40.292,18.693l-1-.58c.028-.326.041-.648.041-.97s-.013-.645-.041-.97l1-.58a1.714,1.714,0,0,0,.625-2.332l-3.4-5.938a1.714,1.714,0,0,0-2.35-.63l-.987.574a11.819,11.819,0,0,0-1.64-.953V5.143a1.714,1.714,0,0,0-1.714-1.714h-6.8a1.714,1.714,0,0,0-1.714,1.714V6.314a11.792,11.792,0,0,0-1.64.953l-.987-.574a1.714,1.714,0,0,0-2.35.63l-3.4,5.938a1.713,1.713,0,0,0,.625,2.332l.994.58c-.028.325-.041.648-.041.97s.013.645.041.97l-.994.58a1.713,1.713,0,0,0-.625,2.332l3.4,5.938a1.714,1.714,0,0,0,2.35.63l.987-.574a11.818,11.818,0,0,0,1.64.953v1.171h-.029V36H20.571v3.429H24a1.713,1.713,0,0,0,1.714-1.714V30.857h3.429v6.857a1.713,1.713,0,0,0,1.714,1.714h3.429V36H32.571V29.143h-.031V27.972a11.791,11.791,0,0,0,1.64-.953l.987.574a1.714,1.714,0,0,0,2.35-.63l3.4-5.938a1.714,1.714,0,0,0-.624-2.332Zm-16.186-1.55a3.429,3.429,0,1,1,3.429,3.429A3.432,3.432,0,0,1,24.106,17.143Z" fill="#fff"/>
      </g>
    </g>
  </g>
</svg>
