<svg xmlns="http://www.w3.org/2000/svg" width="49" height="48" viewBox="0 0 49 48">
  <g id="Grupo_1105191" data-name="Grupo 1105191" transform="translate(-843 -3434.586)">
    <g id="Grupo_1105190" data-name="Grupo 1105190">
      <rect id="Rectángulo_4788" data-name="Rectángulo 4788" width="49" height="48" transform="translate(843 3434.586)" fill="#006df0"/>
    </g>
    <path id="file-video-solid" d="M3.8,0A3.807,3.807,0,0,0,0,3.8V26.627a3.807,3.807,0,0,0,3.8,3.8H19.019a3.807,3.807,0,0,0,3.8-3.8V9.51H15.215a1.9,1.9,0,0,1-1.9-1.9V0ZM15.215,0V7.608h7.608ZM3.8,17.117a1.9,1.9,0,0,1,1.9-1.9h5.706a1.9,1.9,0,0,1,1.9,1.9v5.706a1.9,1.9,0,0,1-1.9,1.9H5.706a1.9,1.9,0,0,1-1.9-1.9Zm14.08,6.532-2.669-1.777v-3.8l2.669-1.777a.753.753,0,0,1,.4-.125.731.731,0,0,1,.731.731v6.146a.731.731,0,0,1-.731.731A.706.706,0,0,1,17.884,23.649Z" transform="translate(856.089 3443.371)" fill="#fff"/>
  </g>
</svg>
