<svg xmlns="http://www.w3.org/2000/svg" xmlns:xlink="http://www.w3.org/1999/xlink" width="75.895" height="111.883" viewBox="0 0 75.895 111.883">
  <defs>
    <clipPath id="clip-path">
      <rect id="Rectángulo_404117" data-name="Rectángulo 404117" width="74.736" height="74.736" transform="translate(0 0)" fill="#fff" stroke="#707070" stroke-width="1"/>
    </clipPath>
  </defs>
  <g id="Grupo_1103969" data-name="Grupo 1103969" transform="translate(-335.174 -4110.468)">
    <rect id="Rectángulo_404116" data-name="Rectángulo 404116" width="48.994" height="92.175" rx="24.497" transform="translate(347.127 4130.176)" fill="#79d3fe"/>
    <g id="Enmascarar_grupo_1098780" data-name="Enmascarar grupo 1098780" transform="translate(336.333 4147.615)" clip-path="url(#clip-path)">
      <g id="ai_2_" data-name="ai (2)" transform="translate(1.841 0.277)">
        <path id="Trazado_879080" data-name="Trazado 879080" d="M23.471,54.294v7.418L12.344,72.84H51.907l-8.655-8.655V56.767l3.709-6.182V43.167H23.471Zm0,0" transform="translate(0.031 0.106)" fill="#c3c3c3"/>
        <path id="Trazado_879081" data-name="Trazado 879081" d="M19.714,27.113A1.228,1.228,0,0,0,18.478,25.9l-.011-.011a1.236,1.236,0,0,0-1.226,1.247l.054,8.655H9.889a1.221,1.221,0,0,0-.309.062,2.473,2.473,0,1,0,0,2.35,1.221,1.221,0,0,0,.309.062h8.655a1.237,1.237,0,0,0,1.236-1.247Zm0,0" transform="translate(0.012 0.064)" fill="#85bc94"/>
        <path id="Trazado_879082" data-name="Trazado 879082" d="M18.544,13.591H8.653V8.646a1.233,1.233,0,0,0-.062-.309,2.472,2.472,0,1,0-2.349,0,1.232,1.232,0,0,0-.062.309v6.182a1.236,1.236,0,0,0,1.236,1.236H18.544a1.236,1.236,0,1,0,0-2.473Zm0,0" transform="translate(0.012 0.009)" fill="#85bc94"/>
        <path id="Trazado_879083" data-name="Trazado 879083" d="M20.439,20.749h-.019l-14.251.22a1.144,1.144,0,0,0-.281.062,2.473,2.473,0,1,0,0,2.35,1.189,1.189,0,0,0,.3.062h.02l14.25-.22a1.236,1.236,0,0,0-.02-2.473Zm0,0" transform="translate(0.003 0.049)" fill="#85bc94"/>
        <path id="Trazado_879084" data-name="Trazado 879084" d="M7.419,40.718a3.709,3.709,0,1,1,3.709-3.709A3.709,3.709,0,0,1,7.419,40.718Zm0-4.945a1.236,1.236,0,1,0,1.236,1.236A1.236,1.236,0,0,0,7.419,35.773Zm0,0" transform="translate(0.009 0.082)" fill="#6b9777"/>
        <path id="Trazado_879085" data-name="Trazado 879085" d="M7.419,9.885a3.709,3.709,0,1,1,3.709-3.709A3.709,3.709,0,0,1,7.419,9.885Zm0-4.945A1.236,1.236,0,1,0,8.656,6.176,1.236,1.236,0,0,0,7.419,4.939Zm0,0" transform="translate(0.009 0.006)" fill="#6b9777"/>
        <path id="Trazado_879086" data-name="Trazado 879086" d="M3.719,25.918a3.709,3.709,0,1,1,1.137-.179,3.709,3.709,0,0,1-1.137.179Zm0-4.945a1.269,1.269,0,0,0-.371.059,1.237,1.237,0,1,0,.371-.059Zm0,0" transform="translate(0 0.046)" fill="#6b9777"/>
        <g id="Grupo_1103967" data-name="Grupo 1103967" transform="translate(27.211)">
          <path id="Trazado_879087" data-name="Trazado 879087" d="M49.062,29.606H39.789a1.417,1.417,0,0,1-1.545-1.236,1.417,1.417,0,0,1,1.545-1.236h9.273a1.417,1.417,0,0,1,1.545,1.236A1.417,1.417,0,0,1,49.062,29.606Zm0,0" transform="translate(-27.116 0.067)" fill="#85bc94"/>
          <path id="Trazado_879088" data-name="Trazado 879088" d="M46.9,22.206H37.013a1.236,1.236,0,1,1,0-2.473H46.9a1.236,1.236,0,0,1,0,2.473Zm0,0" transform="translate(-27.122 0.049)" fill="#85bc94"/>
          <path id="Trazado_879089" data-name="Trazado 879089" d="M46.9,14.806H39.48a1.236,1.236,0,1,1,0-2.473H46.9a1.236,1.236,0,0,1,0,2.473Zm0,0" transform="translate(-27.116 0.03)" fill="#85bc94"/>
          <path id="Trazado_879090" data-name="Trazado 879090" d="M53.1,6.182H41.977a1.236,1.236,0,0,1-1.236-1.236V2.473H30.85V7.418a1.236,1.236,0,1,1-2.473,0V1.236A1.236,1.236,0,0,1,29.613,0H41.977a1.236,1.236,0,0,1,1.236,1.236V3.709H53.1Zm0,0" transform="translate(-27.14)" fill="#85bc94"/>
          <path id="Trazado_879091" data-name="Trazado 879091" d="M34.543,34.533h2.473v2.473H34.543Zm0,0" transform="translate(-27.125 0.085)" fill="#85bc94"/>
          <path id="Trazado_879092" data-name="Trazado 879092" d="M39.477,34.533H41.95v2.473H39.477Zm0,0" transform="translate(-27.113 0.085)" fill="#85bc94"/>
          <path id="Trazado_879093" data-name="Trazado 879093" d="M44.41,34.533h7.418v2.473H44.41Zm0,0" transform="translate(-27.101 0.085)" fill="#85bc94"/>
          <path id="Trazado_879094" data-name="Trazado 879094" d="M28.38,45.667a1.236,1.236,0,0,1-1.236-1.236V33.3a1.236,1.236,0,1,1,2.473,0V44.43A1.236,1.236,0,0,1,28.38,45.667Zm0,0" transform="translate(-27.144 0.079)" fill="#85bc94"/>
        </g>
        <path id="Trazado_879095" data-name="Trazado 879095" d="M37.648,21a8.655,8.655,0,0,0-.066-1.016l4.425-3.643-2.473-4.283-5.372,2.018a8.554,8.554,0,0,0-1.756-1.024L31.466,7.4H26.521l-.942,5.648a8.6,8.6,0,0,0-1.756,1.024l-5.372-2.013-2.473,4.283L20.4,19.984a8.06,8.06,0,0,0,0,2.032l-4.425,3.643,2.473,4.283,5.372-2.018a8.6,8.6,0,0,0,1.756,1.024l.324,1.943.618,3.709h4.945l.941-5.648a8.554,8.554,0,0,0,1.756-1.024l5.372,2.013,2.473-4.283-4.425-3.643A8.655,8.655,0,0,0,37.648,21Zm-8.655,3.709A3.709,3.709,0,1,1,32.7,21,3.709,3.709,0,0,1,28.994,24.709Zm0,0" transform="translate(0.04 0.018)" fill="#5e8569"/>
        <path id="Trazado_879096" data-name="Trazado 879096" d="M33.362,43.167V62.949L24.707,72.84H12.344L23.471,61.712V43.167Zm0,0" transform="translate(0.031 0.106)" fill="#a8a8a8"/>
        <path id="Trazado_879097" data-name="Trazado 879097" d="M43.2,59.239H33.31V43.167h13.6v7.418L43.2,56.767Zm0,0" transform="translate(0.082 0.106)" fill="#dbdbdb"/>
        <path id="Trazado_879098" data-name="Trazado 879098" d="M38.243,59.2V72.8h13.6l-8.655-8.655V59.2Zm0,0" transform="translate(0.095 0.146)" fill="#dbdbdb"/>
        <path id="Trazado_879099" data-name="Trazado 879099" d="M38.243,43.167v8.655l4.945,4.945,6.182-8.655V43.167Zm0,0" transform="translate(0.095 0.106)" fill="#d1d1d1"/>
        <path id="Trazado_879100" data-name="Trazado 879100" d="M27.144,49.333h2.473v2.473H27.144Zm0,0" transform="translate(0.067 0.122)" fill="#b9b9b9"/>
        <path id="Trazado_879101" data-name="Trazado 879101" d="M27.144,54.267h2.473v2.473H27.144Zm0,0" transform="translate(0.067 0.134)" fill="#b9b9b9"/>
        <path id="Trazado_879102" data-name="Trazado 879102" d="M27.144,69.974l2.473-2.825V59.2H27.144Zm0,0" transform="translate(0.067 0.146)" fill="#b9b9b9"/>
        <path id="Trazado_879103" data-name="Trazado 879103" d="M45.624,53.346l3.737-5.233V43.167H41.944v7.418Zm0,0" transform="translate(0.104 0.106)" fill="#cdcdcd"/>
        <path id="Trazado_879104" data-name="Trazado 879104" d="M53.065,3.7l-6.182,8.655V27.191l3.709,4.945v4.945L44.41,39.555v9.891s9.891,6.182,11.127,6.182h7.418V48.209l2.473-2.473V40.791h3.043a1.237,1.237,0,0,0,1.13-1.738l-4.173-9.389A8.44,8.44,0,0,0,67.9,23.694,20.349,20.349,0,0,0,56.65,5.494Zm0,0" transform="translate(0.11 0.009)" fill="#ebebeb"/>
        <path id="Trazado_879105" data-name="Trazado 879105" d="M61.689,30.849H57.98a1.236,1.236,0,1,1,0-2.473h2.473V25.9a1.236,1.236,0,1,1,2.473,0v3.709A1.236,1.236,0,0,1,61.689,30.849Zm0,0" transform="translate(0.14 0.061)" fill="#dbdbdb"/>
        <path id="Trazado_879106" data-name="Trazado 879106" d="M58.854,42.3a1.236,1.236,0,0,0-1.748,1.748,9.611,9.611,0,0,0,6.844,2.835h.213L65.4,45.642V44.406H63.949a7.156,7.156,0,0,1-5.1-2.111Zm0,0" transform="translate(0.14 0.103)" fill="#dbdbdb"/>
        <path id="Trazado_879107" data-name="Trazado 879107" d="M50.577,12.333H53.05v4.945H50.577Zm0,0" transform="translate(0.125 0.03)" fill="#f9f9f9"/>
        <path id="Trazado_879108" data-name="Trazado 879108" d="M50.577,19.733H53.05v2.473H50.577Zm0,0" transform="translate(0.125 0.049)" fill="#f9f9f9"/>
        <path id="Trazado_879109" data-name="Trazado 879109" d="M50.577,24.667H53.05v2.473H50.577Zm0,0" transform="translate(0.125 0.061)" fill="#f9f9f9"/>
        <path id="Trazado_879110" data-name="Trazado 879110" d="M57.98,30.849h3.709a1.236,1.236,0,0,0,1.236-1.236V25.9a1.236,1.236,0,1,0-2.473,0v2.473H57.98a1.236,1.236,0,1,0,0,2.473Zm0,0" transform="translate(0.14 0.061)"/>
        <path id="Trazado_879111" data-name="Trazado 879111" d="M28.974,25.924a4.945,4.945,0,1,0-4.945-4.945A4.946,4.946,0,0,0,28.974,25.924Zm0-7.418A2.473,2.473,0,1,1,26.5,20.979,2.473,2.473,0,0,1,28.974,18.506Zm0,0" transform="translate(0.06 0.04)"/>
        <path id="Trazado_879112" data-name="Trazado 879112" d="M2.025,25.553a3.69,3.69,0,0,0,5.18-2.077l9.723-.15-1.7,1.4a1.235,1.235,0,0,0-.286,1.573l2.31,3.991.051,5.564h-6.17a1.089,1.089,0,0,0-.214.043,3.709,3.709,0,1,0,0,2.386,1.089,1.089,0,0,0,.214.043h7.418a1.237,1.237,0,0,0,1.236-1.247l-.057-6.266,3.956-1.483q.4.261.817.477l.834,5.012a1.236,1.236,0,0,0,1.221,1.032h.647v6.182H23.5a1.236,1.236,0,0,0-1.236,1.236V61.307L11.5,72.072a1.236,1.236,0,0,0,.874,2.111H51.938a1.237,1.237,0,0,0,.874-2.111L44.52,63.779V57.215l2.768-4.61c4.67,2.818,7.494,4.268,8.359,4.268h7.418A1.236,1.236,0,0,0,64.3,55.637V48.73l2.109-2.109a1.248,1.248,0,0,0,.363-.875V42.037h1.806a2.473,2.473,0,0,0,2.26-3.477L67,29.905a9.608,9.608,0,0,0,2.251-6.2A21.465,21.465,0,0,0,57.316,4.4L53.73,2.6a1.236,1.236,0,0,0-1.558.388l-.518.718H43.283V1.236A1.236,1.236,0,0,0,42.047,0H29.683a1.236,1.236,0,0,0-1.236,1.236V6.182H26.56A1.236,1.236,0,0,0,25.34,7.215l-.834,5.011c-.276.144-.549.3-.817.477L18.927,10.92a1.236,1.236,0,0,0-1.5.539l-1.247,2.16c-.032,0-.058-.019-.09-.019H8.665V9.663a3.709,3.709,0,1,0-2.473,0v5.173a1.236,1.236,0,0,0,1.236,1.236h7.4a1.223,1.223,0,0,0,.4,1.236l3.922,3.229c0,.091,0,.183-.007.275L7.2,21a3.709,3.709,0,1,0-5.175,4.556Zm5.4,12.774a1.236,1.236,0,1,1,1.236-1.236A1.236,1.236,0,0,1,7.428,38.328Zm0-33.382A1.236,1.236,0,1,1,6.192,6.182,1.236,1.236,0,0,1,7.428,4.946ZM29.683,35.855h1.823a1.236,1.236,0,0,0,1.219-1.032l.836-5.012c.275-.143.548-.3.816-.477l4.764,1.784a1.236,1.236,0,0,0,1.5-.539l.523-.9h5.824a1.13,1.13,0,0,0,.268-.054l2.2,2.939v2.061H44.52v2.473h2.852l-3.311,1.324a1.236,1.236,0,0,0-.778,1.149v2.473h-13.6ZM43.117,15.741l-.522-.9h3.16v4.945H39.835l3-2.473a1.236,1.236,0,0,0,.284-1.568Zm2.639,6.513V27.2H42.6l.522-.9a1.236,1.236,0,0,0-.284-1.568l-3-2.473ZM37.464,52.8l4.583,4.583v.724H34.629v-13.6H37.1v7.418a1.237,1.237,0,0,0,.362.874ZM29.626,69.237h.057v-.064l4.64-5.3a1.238,1.238,0,0,0,.305-.815V60.582H37.1V71.71H27.457ZM15.359,71.71l9.017-9.017a1.237,1.237,0,0,0,.362-.874V44.509h7.418V62.59l-2.473,2.827V59.346H27.21v8.9L24.176,71.71Zm33.595,0H39.574V60.582h2.473v3.709a1.237,1.237,0,0,0,.362.874ZM43.036,54.88l-3.462-3.462V44.509h3.709v4.945a1.238,1.238,0,0,0,.581,1.049c.461.289.878.544,1.313.812ZM53.566,5.287,56.21,6.61A19.006,19.006,0,0,1,66.774,23.7a7.16,7.16,0,0,1-2.111,5.1,1.236,1.236,0,0,0-.256,1.376l4.173,9.389H65.538A1.236,1.236,0,0,0,64.3,40.8v3.709h-.213a7.156,7.156,0,0,1-5.1-2.111,1.236,1.236,0,0,0-1.748,1.748,9.584,9.584,0,0,0,5.422,2.72l-.477.477a1.237,1.237,0,0,0-.362.874V54.4l-6.065.007a65.732,65.732,0,0,1-8.253-4.562l-.006-.006H47.5c-.582-.354-1.166-.712-1.742-1.07V40.4l5.4-2.161a1.237,1.237,0,0,0,.778-1.149V32.146a1.237,1.237,0,0,0-.248-.742l-3.462-4.615V12.759ZM30.92,2.473h9.891V4.945a1.236,1.236,0,0,0,1.236,1.236h7.842l-3.9,5.463a1.224,1.224,0,0,0-.231.718H41.168l-.523-.9a1.236,1.236,0,0,0-1.5-.539L34.381,12.7c-.268-.174-.542-.334-.816-.477l-.84-5.013a1.236,1.236,0,0,0-1.219-1.032H30.92Zm-13.307,13.6L19.038,13.6l4.391,1.646a1.236,1.236,0,0,0,1.173-.167,7.418,7.418,0,0,1,1.505-.878,1.236,1.236,0,0,0,.732-.933l.769-4.613h2.851l.769,4.614a1.236,1.236,0,0,0,.732.933,7.491,7.491,0,0,1,1.505.878,1.234,1.234,0,0,0,1.172.167L39.028,13.6l1.424,2.473-3.617,2.976a1.236,1.236,0,0,0-.441,1.1,6.652,6.652,0,0,1,0,1.739,1.238,1.238,0,0,0,.441,1.1l3.617,2.973-1.424,2.473-4.392-1.646a1.234,1.234,0,0,0-1.172.167,7.491,7.491,0,0,1-1.505.878,1.236,1.236,0,0,0-.732.933l-.769,4.613H27.606l-.767-4.614a1.236,1.236,0,0,0-.732-.933,7.4,7.4,0,0,1-1.5-.878,1.236,1.236,0,0,0-1.174-.167l-4.392,1.647-1.425-2.473,3.617-2.976c.022-.021.043-.044.063-.068a.958.958,0,0,0,.068-.072,1.2,1.2,0,0,0,.222-.341l.008-.014a1.223,1.223,0,0,0,.079-.426.41.41,0,0,0,.01-.053c0-.015-.007-.027-.008-.042s0-.057,0-.085a6.652,6.652,0,0,1,0-1.739,1.239,1.239,0,0,0-.443-1.1ZM2.62,21.69a1.222,1.222,0,0,1,.722-.618A1.236,1.236,0,0,1,4.1,23.42,1.232,1.232,0,0,1,2.62,21.69Zm0,0" transform="translate(0 0)"/>
        <path id="Trazado_879113" data-name="Trazado 879113" d="M27.144,49.333h2.473v2.473H27.144Zm0,0" transform="translate(0.067 0.122)"/>
        <path id="Trazado_879114" data-name="Trazado 879114" d="M27.144,54.267h2.473v2.473H27.144Zm0,0" transform="translate(0.067 0.134)"/>
        <path id="Trazado_879115" data-name="Trazado 879115" d="M34.543,34.533h2.473v2.473H34.543Zm0,0" transform="translate(0.085 0.085)"/>
        <path id="Trazado_879116" data-name="Trazado 879116" d="M39.477,34.533H41.95v2.473H39.477Zm0,0" transform="translate(0.098 0.085)"/>
        <path id="Trazado_879117" data-name="Trazado 879117" d="M50.577,12.333H53.05v4.945H50.577Zm0,0" transform="translate(0.125 0.03)"/>
        <path id="Trazado_879118" data-name="Trazado 879118" d="M50.577,19.733H53.05v2.473H50.577Zm0,0" transform="translate(0.125 0.049)"/>
        <path id="Trazado_879119" data-name="Trazado 879119" d="M50.577,24.667H53.05v2.473H50.577Zm0,0" transform="translate(0.125 0.061)"/>
      </g>
    </g>
    <g id="Polígono_6" data-name="Polígono 6" transform="matrix(0.602, 0.799, -0.799, 0.602, 359.627, 4116.352)" fill="none">
      <path d="M13.286,0,26.573,23.251H0Z" stroke="none"/>
      <path d="M 13.2864408493042 6.046695709228516 L 5.169540405273438 20.25127601623535 L 21.40333938598633 20.25127601623535 L 13.2864408493042 6.046695709228516 M 13.2864408493042 -3.814697265625e-06 L 26.5728816986084 23.25127601623535 L 0 23.25127601623535 L 13.2864408493042 -3.814697265625e-06 Z" stroke="none" fill="#ffd504"/>
    </g>
    <g id="Grupo_1103968" data-name="Grupo 1103968" transform="translate(347.127 4206.574)">
      <path id="Trazado_879073" data-name="Trazado 879073" d="M7.131,1.785,5.766.421l-1.99,1.99L1.786.421.421,1.785l1.99,1.99L.421,5.766,1.786,7.13l1.99-1.99,1.99,1.99L7.131,5.766,5.14,3.776Z" transform="translate(-0.421 -0.421)" fill="#4f08c2"/>
    </g>
    <circle id="Elipse_11692" data-name="Elipse 11692" cx="2.906" cy="2.906" r="2.906" transform="translate(390.308 4139.311)" fill="#4f08c2"/>
  </g>
</svg>
