<svg xmlns="http://www.w3.org/2000/svg" xmlns:xlink="http://www.w3.org/1999/xlink" width="85" height="85" viewBox="0 0 85 85">
  <defs>
    <clipPath id="clip-path">
      <rect id="Rectángulo_404331" data-name="Rectángulo 404331" width="85" height="85" transform="translate(706.711 1813)" fill="#4f08c2" stroke="#9936b1" stroke-width="1"/>
    </clipPath>
  </defs>
  <g id="Enmascarar_grupo_1098824" data-name="Enmascarar grupo 1098824" transform="translate(-706.711 -1813)" clip-path="url(#clip-path)">
    <g id="apoyo" transform="translate(706.648 1813)">
      <g id="Grupo_1104902" data-name="Grupo 1104902">
        <line id="Línea_4466" data-name="Línea 4466" y1="5.645" transform="translate(54.797 65.626)" fill="none" stroke="#9936b1" stroke-linecap="round" stroke-linejoin="round" stroke-miterlimit="10" stroke-width="2.49"/>
        <line id="Línea_4467" data-name="Línea 4467" y2="5.645" transform="translate(30.23 65.626)" fill="none" stroke="#9936b1" stroke-linecap="round" stroke-linejoin="round" stroke-miterlimit="10" stroke-width="2.49"/>
        <path id="Trazado_879648" data-name="Trazado 879648" d="M17.064,43.035h-2.08A6.524,6.524,0,0,0,8.459,49.56v4.161a6.524,6.524,0,0,0,6.524,6.524h1.362" fill="none" stroke="#9936b1" stroke-linecap="round" stroke-linejoin="round" stroke-miterlimit="10" stroke-width="2.49"/>
        <path id="Trazado_879649" data-name="Trazado 879649" d="M68.682,60.246h1.362a6.525,6.525,0,0,0,6.437-5.461" fill="none" stroke="#9936b1" stroke-linecap="round" stroke-linejoin="round" stroke-miterlimit="10" stroke-width="2.49"/>
        <path id="Trazado_879650" data-name="Trazado 879650" d="M76.541,48.975a6.524,6.524,0,0,0-6.5-5.939h-2.08" fill="none" stroke="#9936b1" stroke-linecap="round" stroke-linejoin="round" stroke-miterlimit="10" stroke-width="2.49"/>
        <path id="Trazado_879651" data-name="Trazado 879651" d="M64.2,65.626H20.826a4.481,4.481,0,0,1-4.481-4.481V48.667A22.292,22.292,0,0,1,38.638,26.374H46.39A22.292,22.292,0,0,1,68.682,48.667V61.146A4.481,4.481,0,0,1,64.2,65.626Z" fill="none" stroke="#9936b1" stroke-linecap="round" stroke-linejoin="round" stroke-miterlimit="10" stroke-width="2.49"/>
        <path id="Trazado_879652" data-name="Trazado 879652" d="M34.877,71.272H21.3a7.468,7.468,0,0,0-7.468,7.468v3.355a1.66,1.66,0,0,0,1.66,1.66H69.531a1.66,1.66,0,0,0,1.66-1.66V78.74a7.468,7.468,0,0,0-7.468-7.468H40.688" fill="none" stroke="#9936b1" stroke-linecap="round" stroke-linejoin="round" stroke-miterlimit="10" stroke-width="2.49"/>
        <path id="Trazado_879653" data-name="Trazado 879653" d="M23.515,57.61V48.667A15.123,15.123,0,0,1,38.638,33.544h7.752A15.123,15.123,0,0,1,61.512,48.667V57.61a.847.847,0,0,1-.847.847h-36.3A.847.847,0,0,1,23.515,57.61Z" fill="none" stroke="#9936b1" stroke-linecap="round" stroke-linejoin="round" stroke-miterlimit="10" stroke-width="2.49"/>
        <path id="Trazado_879654" data-name="Trazado 879654" d="M47,58.457V52.92a.847.847,0,0,0-.847-.847H38.871a.847.847,0,0,0-.847.847v5.537Z" fill="none" stroke="#9936b1" stroke-linecap="round" stroke-linejoin="round" stroke-miterlimit="10" stroke-width="2.49"/>
        <g id="Grupo_1104901" data-name="Grupo 1104901">
          <circle id="Elipse_11737" data-name="Elipse 11737" cx="2.372" cy="2.372" r="2.372" transform="translate(32.094 42.901)" fill="none" stroke="#9936b1" stroke-linecap="round" stroke-linejoin="round" stroke-miterlimit="10" stroke-width="2.49"/>
          <circle id="Elipse_11738" data-name="Elipse 11738" cx="2.372" cy="2.372" r="2.372" transform="translate(48.19 42.901)" fill="none" stroke="#9936b1" stroke-linecap="round" stroke-linejoin="round" stroke-miterlimit="10" stroke-width="2.49"/>
        </g>
        <path id="Trazado_879655" data-name="Trazado 879655" d="M34.147,34.222a9.522,9.522,0,0,0,8.367,4.971h0a9.522,9.522,0,0,0,8.367-4.971" fill="none" stroke="#9936b1" stroke-linecap="round" stroke-linejoin="round" stroke-miterlimit="10" stroke-width="2.49"/>
        <line id="Línea_4468" data-name="Línea 4468" x2="2.359" transform="translate(21.179 8.811)" fill="none" stroke="#9936b1" stroke-linecap="round" stroke-linejoin="round" stroke-miterlimit="10" stroke-width="2.49"/>
        <line id="Línea_4469" data-name="Línea 4469" x2="20.318" transform="translate(43.53 8.811)" fill="none" stroke="#9936b1" stroke-linecap="round" stroke-linejoin="round" stroke-miterlimit="10" stroke-width="2.49"/>
        <line id="Línea_4470" data-name="Línea 4470" x2="2.359" transform="translate(28.422 8.811)" fill="none" stroke="#9936b1" stroke-linecap="round" stroke-linejoin="round" stroke-miterlimit="10" stroke-width="2.49"/>
        <line id="Línea_4471" data-name="Línea 4471" x2="2.359" transform="translate(35.665 8.811)" fill="none" stroke="#9936b1" stroke-linecap="round" stroke-linejoin="round" stroke-miterlimit="10" stroke-width="2.49"/>
        <path id="Trazado_879656" data-name="Trazado 879656" d="M26.742,1.245H21.179a7.566,7.566,0,0,0-7.566,7.565h0a7.566,7.566,0,0,0,7.565,7.566H35.83a3.026,3.026,0,0,1,2.119.865l3.929,3.852a.908.908,0,0,0,1.271,0l3.929-3.852a3.026,3.026,0,0,1,2.119-.865H63.849a7.566,7.566,0,0,0,7.565-7.566h0a7.566,7.566,0,0,0-7.565-7.565h-31.3" fill="none" stroke="#9936b1" stroke-linecap="round" stroke-linejoin="round" stroke-miterlimit="10" stroke-width="2.49"/>
      </g>
    </g>
  </g>
</svg>
