<svg xmlns="http://www.w3.org/2000/svg" xmlns:xlink="http://www.w3.org/1999/xlink" width="85" height="85" viewBox="0 0 85 85">
  <defs>
    <clipPath id="clip-path">
      <rect id="Rectángulo_404661" data-name="Rectángulo 404661" width="52" height="52" transform="translate(301.711 2861)" fill="#fff" stroke="#707070" stroke-width="1"/>
    </clipPath>
  </defs>
  <g id="Grupo_1105180" data-name="Grupo 1105180" transform="translate(-284.711 -2844)">
    <g id="Grupo_156312" data-name="Grupo 156312" transform="translate(284.711 2844)">
      <path id="Elipse_5845" data-name="Elipse 5845" d="M42.5,0A42.5,42.5,0,1,1,0,42.5,42.5,42.5,0,0,1,42.5,0Z" transform="translate(0 0)" fill="#4f08c2"/>
    </g>
    <g id="Enmascarar_grupo_1098826" data-name="Enmascarar grupo 1098826" clip-path="url(#clip-path)">
      <g id="eficiencia" transform="translate(300.854 2860.145)">
        <path id="Trazado_879667" data-name="Trazado 879667" d="M20.981,8.393h2.1v6.714h1.679V7.553a.842.842,0,0,0-.839-.839H22.8l3.214-3.743,3.214,3.743H28.115a.842.842,0,0,0-.839.839v7.553h1.679V8.393h2.1a.838.838,0,0,0,.638-1.385L26.655,1.133a.873.873,0,0,0-1.276,0L20.343,7.008a.853.853,0,0,0-.126.9.844.844,0,0,0,.764.487Z" fill="#fff"/>
        <path id="Trazado_879668" data-name="Trazado 879668" d="M38.606,12.589h2.1V19.3h1.679V11.75a.842.842,0,0,0-.839-.839H40.427l3.214-3.743,3.214,3.743H45.739a.842.842,0,0,0-.839.839V19.3h1.679V12.589h2.1a.838.838,0,0,0,.638-1.385L44.279,5.329a.873.873,0,0,0-1.276,0L37.968,11.2a.853.853,0,0,0-.126.9.844.844,0,0,0,.764.487Z" fill="#fff"/>
        <path id="Trazado_879669" data-name="Trazado 879669" d="M5.036,19.3h2.1v6.714H8.812V18.464a.842.842,0,0,0-.839-.839H6.857l3.214-3.743,3.214,3.743H12.169a.842.842,0,0,0-.839.839v7.553h1.679V19.3h2.1a.838.838,0,0,0,.638-1.385l-5.036-5.875a.873.873,0,0,0-1.276,0L4.4,17.918a.853.853,0,0,0-.126.9.844.844,0,0,0,.764.487Z" fill="#fff"/>
        <path id="Trazado_879670" data-name="Trazado 879670" d="M20.981,47H31.052a5.039,5.039,0,0,0,5.036-5.036V33.57a5.039,5.039,0,0,0-5.036-5.036H20.981a5.039,5.039,0,0,0-5.036,5.036v8.393A5.039,5.039,0,0,0,20.981,47ZM17.624,33.57a3.356,3.356,0,0,1,3.357-3.357H31.052a3.356,3.356,0,0,1,3.357,3.357v8.393a3.356,3.356,0,0,1-3.357,3.357H20.981a3.356,3.356,0,0,1-3.357-3.357Z" fill="#fff"/>
        <path id="Trazado_879671" data-name="Trazado 879671" d="M32.143,39.864H30.884v-4.2h1.259V33.99h-4.2v1.679h1.259v4.2H27.947v1.679h4.2Z" fill="#fff"/>
        <path id="Trazado_879672" data-name="Trazado 879672" d="M21.98,39.864h2.2l.369,1.679h1.72l-1.536-6.9a.836.836,0,0,0-.822-.655H22.232a.852.852,0,0,0-.822.655l-1.536,6.9h1.72l.369-1.679Zm.932-4.2h.336l.562,2.518H22.358l.562-2.518Z" fill="#fff"/>
        <path id="Trazado_879673" data-name="Trazado 879673" d="M30.331,22.416l-2.039,2.039a.836.836,0,0,0,0,1.183l.428.428a7.775,7.775,0,0,0-.478,1.2l1.6.5a5.687,5.687,0,0,1,.411-1.015,1.545,1.545,0,0,0-.185-1.7l.864-.864a1.563,1.563,0,0,0,1.7.193,5.7,5.7,0,0,1,1.234-.47,1.1,1.1,0,0,0,.789-1.049v-.21h1.192v.193a1.1,1.1,0,0,0,.839,1.074,5.33,5.33,0,0,1,1.183.462,1.545,1.545,0,0,0,1.7-.185l.864.864a1.551,1.551,0,0,0-.193,1.7,6.4,6.4,0,0,1,.394.94,1.519,1.519,0,0,0,1.334,1.074v1.2a1.534,1.534,0,0,0-1.343,1.083,6.2,6.2,0,0,1-.378.932,1.545,1.545,0,0,0,.185,1.7l-.864.864a1.551,1.551,0,0,0-1.7-.193,6.13,6.13,0,0,1-.948.394l.5,1.6a8.2,8.2,0,0,0,1.116-.453l.436.428a.811.811,0,0,0,.6.243.86.86,0,0,0,.6-.243l2.039-2.039a.836.836,0,0,0,0-1.183l-.428-.428a6.977,6.977,0,0,0,.42-1.024h.6a.842.842,0,0,0,.839-.839v-2.87a.842.842,0,0,0-.839-.839h-.6a8.766,8.766,0,0,0-.42-1.024l.428-.428a.836.836,0,0,0,0-1.183l-2.039-2.039a.836.836,0,0,0-1.183,0l-.428.428a6.89,6.89,0,0,0-1.024-.42v-.6a.842.842,0,0,0-.839-.839h-2.87a.842.842,0,0,0-.839.839v.6a7.717,7.717,0,0,0-1.024.42l-.428-.428a.836.836,0,0,0-1.183,0Z" fill="#fff"/>
        <path id="Trazado_879674" data-name="Trazado 879674" d="M36.675,31.438l.923,1.4a4.122,4.122,0,0,0,1.846-3.458,4.2,4.2,0,0,0-4.2-4.2,4.122,4.122,0,0,0-3.458,1.846l1.4.923a2.472,2.472,0,0,1,2.065-1.091,2.525,2.525,0,0,1,2.518,2.518,2.472,2.472,0,0,1-1.091,2.065Z" fill="#fff"/>
        <path id="Trazado_879675" data-name="Trazado 879675" d="M22.324,48.928l-.243-.243a4.851,4.851,0,0,0,.243-.587L20.73,47.56a3.892,3.892,0,0,1-.235.537,1.421,1.421,0,0,0,.067,1.393l-.436.436a1.43,1.43,0,0,0-1.41-.059,3.936,3.936,0,0,1-.688.285,1.379,1.379,0,0,0-.94,1.032h-.613a1.4,1.4,0,0,0-.957-1.041,3.165,3.165,0,0,1-.68-.285,1.421,1.421,0,0,0-1.393.067l-.436-.436a1.445,1.445,0,0,0,.059-1.418,3.112,3.112,0,0,1-.277-.68,1.379,1.379,0,0,0-1.032-.94v-.587a1.064,1.064,0,0,0,.982-.781,4.169,4.169,0,0,1,.344-.89,1.421,1.421,0,0,0-.067-1.393l.436-.436a1.381,1.381,0,0,0,1.393.067,3.892,3.892,0,0,1,.537-.235L14.855,40.6a4.622,4.622,0,0,0-.587.243l-.243-.243a.851.851,0,0,0-1.183,0l-1.578,1.578a.836.836,0,0,0,0,1.183l.243.243a5.988,5.988,0,0,0-.243.579h-.336a.842.842,0,0,0-.839.839v2.232a.842.842,0,0,0,.839.839h.336a5.957,5.957,0,0,0,.235.579l-.235.235a.836.836,0,0,0,0,1.183l1.578,1.578a.831.831,0,0,0,.6.243.867.867,0,0,0,.6-.243l.243-.235a4.975,4.975,0,0,0,.579.243v.336a.842.842,0,0,0,.839.839h2.232a.842.842,0,0,0,.839-.839v-.336a5.958,5.958,0,0,0,.579-.235l.235.235a.851.851,0,0,0,1.183,0L22.341,50.1a.836.836,0,0,0,0-1.183Z" fill="#fff"/>
        <path id="Trazado_879676" data-name="Trazado 879676" d="M16.03,45.152l-1.007-1.343a2.937,2.937,0,1,0,4.112,4.112l-1.343-1.007a1.259,1.259,0,1,1-1.762-1.762Z" fill="#fff"/>
      </g>
    </g>
  </g>
</svg>
